<svg xmlns="http://www.w3.org/2000/svg" xmlns:xlink="http://www.w3.org/1999/xlink" viewBox="510 216 422 370" width="422" height="370" preserveAspectRatio="xMidYMid meet" version="1.0"><defs><g/><clipPath id="a6fe033f12"><path d="M 0.71875 68 L 285 68 L 285 280 L 0.71875 280 Z M 0.71875 68 " clip-rule="nonzero"/></clipPath><clipPath id="712755055a"><rect x="0" width="422" y="0" height="370"/></clipPath><clipPath id="2daebf7335"><path d="M 0.0390625 8 L 22 8 L 22 34 L 0.0390625 34 Z M 0.0390625 8 " clip-rule="nonzero"/></clipPath><clipPath id="34d00b474c"><path d="M 167 17 L 182.921875 17 L 182.921875 33 L 167 33 Z M 167 17 " clip-rule="nonzero"/></clipPath><clipPath id="6455158ee0"><rect x="0" width="183" y="0" height="44"/></clipPath></defs><g transform="matrix(1, 0, 0, 1, 510, 216)"><g clip-path="url(#712755055a)"><g clip-path="url(#a6fe033f12)"><g fill="#263b7e" fill-opacity="1"><g transform="translate(0.901563, 274.894109)"><g><path d="M 278.703125 -64.859375 C 281.816406 -64.859375 283.375 -60.644531 283.375 -52.21875 C 283.375 -47.644531 281.453125 -42.101562 277.609375 -35.59375 C 273.765625 -29.09375 268.769531 -23.140625 262.625 -17.734375 C 256.488281 -12.328125 249.660156 -7.878906 242.140625 -4.390625 C 234.628906 -0.910156 226.707031 0.828125 218.375 0.828125 C 210.039062 0.828125 203.535156 -1.875 198.859375 -7.28125 C 194.191406 -12.6875 191.859375 -18.734375 191.859375 -25.421875 C 191.859375 -32.109375 192.957031 -39.664062 195.15625 -48.09375 C 197.351562 -56.53125 199.734375 -65.328125 202.296875 -74.484375 C 209.253906 -98.859375 212.828125 -115.992188 213.015625 -125.890625 C 213.015625 -130.097656 212.460938 -133.347656 211.359375 -135.640625 C 210.265625 -137.929688 208.160156 -139.078125 205.046875 -139.078125 C 199.546875 -139.078125 193.679688 -135.773438 187.453125 -129.171875 C 181.222656 -122.578125 175.359375 -114.148438 169.859375 -103.890625 C 157.210938 -80.441406 150.523438 -57.539062 149.796875 -35.1875 C 150.160156 -32.613281 150.523438 -30.046875 150.890625 -27.484375 C 151.265625 -24.921875 151.453125 -22.171875 151.453125 -19.234375 C 151.453125 -13.367188 148.5625 -8.007812 142.78125 -3.15625 C 137.007812 1.695312 130.550781 4.125 123.40625 4.125 C 119.195312 4.125 116.082031 2.058594 114.0625 -2.0625 C 112.050781 -6.1875 111.046875 -11.269531 111.046875 -17.3125 C 111.046875 -23.363281 112.414062 -31.609375 115.15625 -42.046875 C 117.90625 -52.492188 120.929688 -63.582031 124.234375 -75.3125 C 133.035156 -106.28125 137.523438 -129.367188 137.703125 -144.578125 C 137.703125 -152.273438 136.738281 -158.320312 134.8125 -162.71875 C 132.894531 -167.113281 129.1875 -169.3125 123.6875 -169.3125 C 113.789062 -169.3125 103.984375 -162.253906 94.265625 -148.140625 C 84.554688 -134.035156 75.859375 -112.140625 68.171875 -82.453125 C 66.148438 -74.753906 64.59375 -68.066406 63.5 -62.390625 L 63.21875 -57.171875 C 66.695312 -40.316406 68.4375 -29.320312 68.4375 -24.1875 C 68.4375 -13.5625 64.679688 -6.414062 57.171875 -2.75 C 53.691406 -1.101562 50.347656 0.453125 47.140625 1.921875 C 43.929688 3.390625 40.492188 4.125 36.828125 4.125 C 27.671875 4.125 23.09375 -4.625 23.09375 -22.125 C 23.09375 -39.625 27.945312 -73.84375 37.65625 -124.78125 C 41.132812 -143.101562 42.875 -153.367188 42.875 -155.578125 C 42.875 -170.410156 39.117188 -177.828125 31.609375 -177.828125 C 29.046875 -177.828125 26.707031 -177.09375 24.59375 -175.625 C 22.488281 -174.164062 20.382812 -172.609375 18.28125 -170.953125 C 16.175781 -169.304688 14.019531 -167.75 11.8125 -166.28125 C 9.613281 -164.820312 7.09375 -164.09375 4.25 -164.09375 C 1.414062 -164.09375 0 -166.566406 0 -171.515625 C 0 -181.585938 4.671875 -189.832031 14.015625 -196.25 C 22.992188 -202.84375 33.894531 -206.140625 46.71875 -206.140625 C 63.21875 -206.140625 72.929688 -198.445312 75.859375 -183.0625 C 76.585938 -178.476562 77.140625 -173.617188 77.515625 -168.484375 C 91.066406 -193.953125 108.195312 -206.6875 128.90625 -206.6875 C 151.445312 -206.6875 164.367188 -195.878906 167.671875 -174.265625 C 168.765625 -168.035156 169.21875 -161.347656 169.03125 -154.203125 L 169.03125 -152 C 180.945312 -168.488281 195.054688 -176.734375 211.359375 -176.734375 C 234.453125 -176.734375 246 -162.804688 246 -134.953125 C 246 -122.859375 244.117188 -108.703125 240.359375 -92.484375 C 236.609375 -76.273438 233.859375 -64.640625 232.109375 -57.578125 C 230.367188 -50.523438 229.5 -45.078125 229.5 -41.234375 C 229.5 -34.265625 231.925781 -30.78125 236.78125 -30.78125 C 241.644531 -30.78125 253.238281 -40.3125 271.5625 -59.375 C 274.863281 -63.03125 277.242188 -64.859375 278.703125 -64.859375 Z M 278.703125 -64.859375 "/></g></g></g></g><g fill="#263b7e" fill-opacity="1"><g transform="translate(262.295078, 274.894109)"><g><path d="M 46.453125 -58 C 46.453125 -42.050781 53.234375 -34.078125 66.796875 -34.078125 C 81.628906 -34.078125 91.613281 -39.207031 96.75 -49.46875 C 98.582031 -53.132812 99.5 -57.851562 99.5 -63.625 C 99.5 -69.394531 98.125 -74.753906 95.375 -79.703125 C 90.789062 -87.585938 82.910156 -96.296875 71.734375 -105.828125 C 53.234375 -121.578125 43.984375 -137.925781 43.984375 -154.875 C 43.984375 -171.832031 49.296875 -184.890625 59.921875 -194.046875 C 70.546875 -203.210938 82.726562 -207.796875 96.46875 -207.796875 C 110.21875 -207.796875 121.125 -204.3125 129.1875 -197.34375 C 137.25 -190.382812 141.28125 -179.941406 141.28125 -166.015625 C 141.28125 -156.847656 138.207031 -148.875 132.0625 -142.09375 C 125.925781 -135.320312 117.820312 -131.109375 107.75 -129.453125 C 112.320312 -125.609375 116.898438 -121.671875 121.484375 -117.640625 C 125.878906 -113.609375 129.910156 -109.210938 133.578125 -104.453125 C 141.640625 -93.640625 145.671875 -80.71875 145.671875 -65.6875 C 145.671875 -55.25 143.242188 -45.8125 138.390625 -37.375 C 133.535156 -28.945312 127.210938 -21.847656 119.421875 -16.078125 C 111.640625 -10.304688 102.890625 -5.863281 93.171875 -2.75 C 83.460938 0.363281 74.394531 1.921875 65.96875 1.921875 C 48.007812 1.921875 34.082031 -2.195312 24.1875 -10.4375 C 12.644531 -19.789062 6.875 -33.257812 6.875 -50.84375 C 6.875 -62.394531 10.628906 -73.570312 18.140625 -84.375 C 25.648438 -95.1875 33.617188 -100.59375 42.046875 -100.59375 C 48.648438 -100.59375 51.953125 -98.578125 51.953125 -94.546875 C 51.953125 -88.679688 51.035156 -82.863281 49.203125 -77.09375 C 47.367188 -71.320312 46.453125 -64.957031 46.453125 -58 Z M 99.78125 -136.0625 C 110.21875 -146.5 115.4375 -157.398438 115.4375 -168.765625 C 115.4375 -172.242188 113.601562 -175.175781 109.9375 -177.5625 C 105.90625 -179.757812 101.691406 -180.859375 97.296875 -180.859375 C 87.398438 -180.859375 80.253906 -177.648438 75.859375 -171.234375 C 78.054688 -163.359375 81.304688 -156.671875 85.609375 -151.171875 C 89.921875 -145.671875 94.644531 -140.632812 99.78125 -136.0625 Z M 99.78125 -136.0625 "/></g></g></g></g></g><g transform="matrix(1, 0, 0, 1, 749, 525)"><g clip-path="url(#6455158ee0)"><g clip-path="url(#2daebf7335)"><g fill="#263b7e" fill-opacity="1"><g transform="translate(0.084324, 32.690126)"><g><path d="M 13.046875 -11.21875 C 10.972656 -11.21875 9.957031 -11.738281 10 -12.78125 C 10 -13.769531 10.992188 -14.265625 12.984375 -14.265625 C 13.453125 -14.265625 13.898438 -14.207031 14.328125 -14.09375 C 15.023438 -14.800781 15.375 -15.867188 15.375 -17.296875 C 15.375 -19.765625 13.722656 -21 10.421875 -21 C 8.691406 -21 7.050781 -20.628906 5.5 -19.890625 C 4.925781 -19.609375 4.410156 -19.347656 3.953125 -19.109375 C 3.492188 -18.878906 3.070312 -18.765625 2.6875 -18.765625 C 2.300781 -18.765625 2.109375 -18.882812 2.109375 -19.125 C 2.109375 -19.394531 2.320312 -19.800781 2.75 -20.34375 C 3.175781 -20.882812 3.773438 -21.4375 4.546875 -22 C 6.503906 -23.363281 8.726562 -24.054688 11.21875 -24.078125 C 14.476562 -24.078125 16.875 -23.425781 18.40625 -22.125 C 19.726562 -21.03125 20.390625 -19.546875 20.390625 -17.671875 C 20.390625 -15.503906 19.328125 -13.84375 17.203125 -12.6875 C 19.242188 -11.519531 20.457031 -10.082031 20.84375 -8.375 C 20.96875 -7.78125 21.03125 -6.992188 21.03125 -6.015625 C 21.03125 -5.035156 20.765625 -4.109375 20.234375 -3.234375 C 19.703125 -2.359375 18.988281 -1.617188 18.09375 -1.015625 C 16.300781 0.128906 14.007812 0.703125 11.21875 0.703125 C 9.238281 0.703125 7.035156 0.253906 4.609375 -0.640625 C 2.984375 -1.234375 1.785156 -1.945312 1.015625 -2.78125 C 0.640625 -3.1875 0.457031 -3.59375 0.46875 -4 C 0.476562 -4.40625 0.675781 -4.609375 1.0625 -4.609375 C 1.457031 -4.609375 2.210938 -4.46875 3.328125 -4.1875 L 3.328125 -4.21875 C 3.328125 -5.882812 3.519531 -7.585938 3.90625 -9.328125 C 4.5625 -12.378906 5.328125 -14.769531 6.203125 -16.5 C 7.140625 -18.414062 8.109375 -19.375 9.109375 -19.375 C 9.390625 -19.375 9.53125 -18.894531 9.53125 -17.9375 C 9.53125 -16.976562 9.4375 -15.992188 9.25 -14.984375 C 9.070312 -13.984375 8.878906 -13 8.671875 -12.03125 C 8.472656 -11.0625 8.28125 -10.179688 8.09375 -9.390625 C 7.914062 -8.609375 7.828125 -8.046875 7.828125 -7.703125 L 7.515625 -2.875 C 8.773438 -2.53125 9.835938 -2.359375 10.703125 -2.359375 C 11.578125 -2.359375 12.367188 -2.507812 13.078125 -2.8125 C 14.847656 -3.5625 15.734375 -4.863281 15.734375 -6.71875 C 15.734375 -7.820312 15.625 -8.734375 15.40625 -9.453125 C 15.195312 -10.179688 14.816406 -10.820312 14.265625 -11.375 C 13.765625 -11.269531 13.359375 -11.21875 13.046875 -11.21875 Z M 13.046875 -11.21875 "/></g></g></g></g><g fill="#263b7e" fill-opacity="1"><g transform="translate(22.716616, 32.690126)"><g><path d="M 9.5625 -2.328125 C 8.488281 -0.859375 7.0625 -0.125 5.28125 -0.125 C 3.820312 -0.125 2.660156 -0.425781 1.796875 -1.03125 C 0.941406 -1.644531 0.515625 -2.613281 0.515625 -3.9375 C 0.515625 -4.488281 0.59375 -5 0.75 -5.46875 C 0.90625 -5.9375 1.164062 -6.507812 1.53125 -7.1875 L 2.46875 -14.765625 C 3.125 -15.273438 4.015625 -15.53125 5.140625 -15.53125 C 6.097656 -15.53125 6.644531 -14.894531 6.78125 -13.625 C 6.820312 -13.238281 6.84375 -12.785156 6.84375 -12.265625 C 6.84375 -11.742188 6.753906 -11.191406 6.578125 -10.609375 C 5.734375 -7.671875 5.320312 -5.703125 5.34375 -4.703125 C 5.34375 -3.929688 5.789062 -3.546875 6.6875 -3.546875 C 7.582031 -3.546875 8.238281 -3.832031 8.65625 -4.40625 C 9.082031 -4.988281 9.445312 -5.703125 9.75 -6.546875 C 10.300781 -8.921875 10.816406 -10.875 11.296875 -12.40625 C 11.773438 -13.9375 12.082031 -14.851562 12.21875 -15.15625 C 12.425781 -15.664062 12.828125 -15.929688 13.421875 -15.953125 C 14.023438 -15.929688 14.59375 -15.507812 15.125 -14.6875 C 15.65625 -13.863281 15.921875 -13.226562 15.921875 -12.78125 C 15.878906 -11.289062 14.953125 -7.53125 13.140625 -1.5 C 14.523438 -2.59375 15.898438 -3.925781 17.265625 -5.5 C 17.734375 -6.050781 18.125 -6.515625 18.4375 -6.890625 C 18.757812 -7.265625 19.019531 -7.453125 19.21875 -7.453125 C 19.507812 -7.453125 19.65625 -7.109375 19.65625 -6.421875 C 19.65625 -5.078125 18.90625 -3.507812 17.40625 -1.71875 C 15.90625 0.0585938 14.066406 1.457031 11.890625 2.46875 C 11.640625 3.3125 11.363281 4.117188 11.0625 4.890625 C 10.757812 5.660156 10.375 6.332031 9.90625 6.90625 C 8.882812 8.144531 7.332031 8.765625 5.25 8.765625 C 3.84375 8.765625 2.640625 8.359375 1.640625 7.546875 C 0.648438 6.734375 0.15625 5.71875 0.15625 4.5 C 0.15625 3.820312 0.382812 3.28125 0.84375 2.875 C 1.300781 2.46875 1.929688 2.128906 2.734375 1.859375 C 3.535156 1.597656 4.46875 1.363281 5.53125 1.15625 C 6.59375 0.957031 7.734375 0.710938 8.953125 0.421875 C 9.253906 -0.855469 9.457031 -1.773438 9.5625 -2.328125 Z M 5.203125 6.296875 C 6.210938 6.296875 7.117188 5.421875 7.921875 3.671875 C 7.160156 3.828125 6.476562 3.941406 5.875 4.015625 C 5.28125 4.085938 4.769531 4.15625 4.34375 4.21875 C 3.488281 4.34375 3.070312 4.566406 3.09375 4.890625 C 3.09375 5.296875 3.332031 5.632812 3.8125 5.90625 C 4.300781 6.1875 4.765625 6.316406 5.203125 6.296875 Z M 5.203125 6.296875 "/></g></g></g><g fill="#263b7e" fill-opacity="1"><g transform="translate(39.818703, 32.690126)"><g/></g></g><g fill="#263b7e" fill-opacity="1"><g transform="translate(52.605313, 32.690126)"><g><path d="M 6.015625 -14.0625 C 6.015625 -12.632812 5.757812 -11.015625 5.25 -9.203125 C 5.289062 -8.523438 5.3125 -7.863281 5.3125 -7.21875 C 5.351562 -5.851562 5.519531 -4.914062 5.8125 -4.40625 C 6.03125 -4.132812 6.3125 -4 6.65625 -4 C 7.3125 -4 8.128906 -4.46875 9.109375 -5.40625 C 8.367188 -7.175781 8 -8.773438 8 -10.203125 C 8 -13.117188 9.367188 -14.578125 12.109375 -14.578125 C 13.046875 -14.578125 13.828125 -14.304688 14.453125 -13.765625 C 15.085938 -13.222656 15.40625 -12.546875 15.40625 -11.734375 C 15.40625 -10.023438 14.457031 -7.976562 12.5625 -5.59375 C 13.351562 -4.65625 13.992188 -4.113281 14.484375 -3.96875 C 15.179688 -3.96875 16.234375 -5.265625 17.640625 -7.859375 C 17.390625 -8.816406 17.265625 -9.710938 17.265625 -10.546875 C 17.265625 -12.054688 17.5 -13.164062 17.96875 -13.875 C 18.539062 -14.769531 19.492188 -15.21875 20.828125 -15.21875 C 22.160156 -15.21875 22.910156 -14.675781 23.078125 -13.59375 C 23.117188 -13.269531 23.140625 -12.925781 23.140625 -12.5625 C 23.140625 -11.195312 22.382812 -9.3125 20.875 -6.90625 C 21.40625 -6.132812 21.90625 -5.675781 22.375 -5.53125 C 23.351562 -5.53125 24.1875 -5.859375 24.875 -6.515625 C 25.125 -6.753906 25.335938 -6.972656 25.515625 -7.171875 C 25.703125 -7.378906 25.894531 -7.484375 26.09375 -7.484375 C 26.382812 -7.484375 26.53125 -7.128906 26.53125 -6.421875 C 26.53125 -5.117188 26.144531 -4.160156 25.375 -3.546875 C 24.613281 -2.929688 23.613281 -2.625 22.375 -2.625 C 21.144531 -2.625 20.070312 -3.21875 19.15625 -4.40625 C 18.039062 -2.957031 17.125 -1.945312 16.40625 -1.375 C 15.082031 -0.289062 14.046875 0.25 13.296875 0.25 C 12.929688 0.25 12.46875 -0.0507812 11.90625 -0.65625 C 11.34375 -1.257812 10.785156 -2.050781 10.234375 -3.03125 C 9.210938 -2.070312 8.195312 -1.285156 7.1875 -0.671875 C 6.1875 -0.0546875 5.347656 0.25 4.671875 0.25 C 3.429688 0.25 2.382812 -2.429688 1.53125 -7.796875 C 1.238281 -9.628906 1.09375 -10.890625 1.09375 -11.578125 C 1.132812 -12.984375 1.320312 -13.960938 1.65625 -14.515625 C 2.125 -15.191406 3.039062 -15.53125 4.40625 -15.53125 C 4.914062 -15.53125 5.3125 -15.375 5.59375 -15.0625 C 5.875 -14.757812 6.015625 -14.425781 6.015625 -14.0625 Z M 11.484375 -8.3125 C 12.179688 -9.394531 12.53125 -10.257812 12.53125 -10.90625 C 12.53125 -11.5625 12.304688 -11.890625 11.859375 -11.890625 C 11.554688 -11.890625 11.367188 -11.722656 11.296875 -11.390625 C 11.222656 -11.066406 11.1875 -10.632812 11.1875 -10.09375 C 11.1875 -9.5625 11.285156 -8.96875 11.484375 -8.3125 Z M 11.484375 -8.3125 "/></g></g></g><g fill="#263b7e" fill-opacity="1"><g transform="translate(76.740025, 32.690126)"><g><path d="M 11.609375 -10.734375 C 11.609375 -11.503906 11.15625 -11.890625 10.25 -11.890625 C 9.34375 -11.890625 8.453125 -11.191406 7.578125 -9.796875 C 6.703125 -8.398438 6.160156 -6.976562 5.953125 -5.53125 C 5.992188 -5.039062 6.035156 -4.550781 6.078125 -4.0625 C 6.117188 -3.570312 6.140625 -3.09375 6.140625 -2.625 C 6.140625 -1.488281 5.765625 -0.71875 5.015625 -0.3125 C 4.671875 -0.125 4.34375 0.0507812 4.03125 0.21875 C 3.726562 0.394531 3.375 0.484375 2.96875 0.484375 C 2.5625 0.484375 2.203125 0.210938 1.890625 -0.328125 C 1.585938 -0.878906 1.4375 -1.726562 1.4375 -2.875 C 1.4375 -6.09375 1.671875 -8.882812 2.140625 -11.25 C 2.867188 -14.914062 4.304688 -18.835938 6.453125 -23.015625 C 6.753906 -23.585938 7.191406 -23.867188 7.765625 -23.859375 C 8.335938 -23.847656 8.804688 -23.445312 9.171875 -22.65625 C 9.535156 -21.875 9.710938 -21.21875 9.703125 -20.6875 C 9.691406 -20.15625 9.601562 -19.632812 9.4375 -19.125 C 9.28125 -18.625 9.078125 -18.132812 8.828125 -17.65625 C 8.585938 -17.175781 8.3125 -16.6875 8 -16.1875 C 7.695312 -15.6875 7.394531 -15.148438 7.09375 -14.578125 L 6.625 -12.28125 C 7.445312 -13.664062 8.5625 -14.59375 9.96875 -15.0625 C 10.476562 -15.226562 11.046875 -15.3125 11.671875 -15.3125 C 13.117188 -15.3125 14.210938 -14.984375 14.953125 -14.328125 C 15.703125 -13.679688 16.078125 -12.765625 16.078125 -11.578125 C 16.078125 -10.398438 15.921875 -9.203125 15.609375 -7.984375 C 15.304688 -6.773438 15.082031 -5.910156 14.9375 -5.390625 C 14.800781 -4.867188 14.734375 -4.4375 14.734375 -4.09375 C 14.734375 -3.75 14.851562 -3.578125 15.09375 -3.578125 C 15.40625 -3.578125 15.796875 -3.78125 16.265625 -4.1875 C 16.734375 -4.59375 17.203125 -5.035156 17.671875 -5.515625 C 18.140625 -5.992188 18.570312 -6.4375 18.96875 -6.84375 C 19.363281 -7.25 19.632812 -7.453125 19.78125 -7.453125 C 20.082031 -7.453125 20.234375 -7.085938 20.234375 -6.359375 C 20.234375 -4.867188 19.5 -3.429688 18.03125 -2.046875 C 15.5625 -0.597656 13.984375 0.125 13.296875 0.125 C 13.234375 0.125 13.191406 0.113281 13.171875 0.09375 C 11.460938 0.09375 10.609375 -1.269531 10.609375 -4 C 10.609375 -5.164062 10.71875 -6.238281 10.9375 -7.21875 C 11.164062 -8.207031 11.332031 -8.921875 11.4375 -9.359375 C 11.550781 -9.804688 11.609375 -10.265625 11.609375 -10.734375 Z M 11.609375 -10.734375 "/></g></g></g><g fill="#263b7e" fill-opacity="1"><g transform="translate(94.417496, 32.690126)"><g><path d="M 20.59375 -7.546875 C 20.96875 -7.546875 21.15625 -7.054688 21.15625 -6.078125 C 21.15625 -5.546875 20.929688 -4.898438 20.484375 -4.140625 C 20.046875 -3.378906 19.46875 -2.6875 18.75 -2.0625 C 18.03125 -1.4375 17.234375 -0.921875 16.359375 -0.515625 C 15.492188 -0.109375 14.644531 0.09375 13.8125 0.09375 C 12.675781 0.09375 11.921875 -0.894531 11.546875 -2.875 C 10.984375 -1.957031 10.253906 -1.207031 9.359375 -0.625 C 8.472656 -0.0390625 7.273438 0.25 5.765625 0.25 C 4.265625 0.25 3.054688 -0.21875 2.140625 -1.15625 C 1.222656 -2.09375 0.773438 -3.234375 0.796875 -4.578125 C 0.796875 -8.191406 2 -11.046875 4.40625 -13.140625 C 5.4375 -14.015625 6.390625 -14.585938 7.265625 -14.859375 C 8.148438 -15.140625 9.082031 -15.28125 10.0625 -15.28125 C 11.050781 -15.28125 11.851562 -15.109375 12.46875 -14.765625 C 12.769531 -15.390625 13.109375 -15.703125 13.484375 -15.703125 C 14.234375 -15.703125 14.941406 -15.375 15.609375 -14.71875 C 16.285156 -14.070312 16.625 -13.460938 16.625 -12.890625 C 16.320312 -12.179688 15.882812 -11.335938 15.3125 -10.359375 C 15.144531 -9.378906 15.0625 -8.003906 15.0625 -6.234375 C 15.0625 -4.460938 15.285156 -3.578125 15.734375 -3.578125 C 16.285156 -3.578125 17.625 -4.6875 19.75 -6.90625 C 20.132812 -7.332031 20.414062 -7.546875 20.59375 -7.546875 Z M 5.5 -5.625 C 5.5 -3.988281 6.109375 -3.171875 7.328125 -3.171875 C 8.617188 -3.191406 9.691406 -3.882812 10.546875 -5.25 C 10.847656 -5.71875 11.09375 -6.289062 11.28125 -6.96875 C 11.28125 -9.351562 11.492188 -11.398438 11.921875 -13.109375 C 10.191406 -12.765625 8.6875 -11.929688 7.40625 -10.609375 C 6.132812 -9.285156 5.5 -7.625 5.5 -5.625 Z M 5.5 -5.625 "/></g></g></g><g fill="#263b7e" fill-opacity="1"><g transform="translate(113.022004, 32.690126)"><g><path d="M 2.375 -1.734375 C 2.132812 -2.304688 1.957031 -2.96875 1.84375 -3.71875 C 1.738281 -4.476562 1.6875 -5.539062 1.6875 -6.90625 C 1.6875 -8.269531 1.945312 -10.113281 2.46875 -12.4375 L 1.015625 -12.4375 C 0.765625 -12.4375 0.640625 -12.539062 0.640625 -12.75 C 0.640625 -13.257812 0.6875 -13.679688 0.78125 -14.015625 C 0.875 -14.347656 1.101562 -14.726562 1.46875 -15.15625 L 2.234375 -15.15625 C 2.535156 -15.15625 2.859375 -15.164062 3.203125 -15.1875 C 4.222656 -18.46875 5.265625 -20.109375 6.328125 -20.109375 C 7.179688 -20.085938 7.78125 -19.546875 8.125 -18.484375 C 8.207031 -18.179688 8.300781 -17.859375 8.40625 -17.515625 L 7.09375 -15.21875 C 8.582031 -15.175781 9.523438 -15.15625 9.921875 -15.15625 C 10.316406 -15.15625 10.53125 -15.113281 10.5625 -15.03125 C 10.59375 -14.957031 10.609375 -14.847656 10.609375 -14.703125 C 10.609375 -14.316406 10.515625 -13.835938 10.328125 -13.265625 C 10.148438 -12.691406 9.945312 -12.414062 9.71875 -12.4375 L 6.515625 -12.59375 C 6.066406 -10 5.84375 -7.847656 5.84375 -6.140625 C 5.84375 -4.429688 6.085938 -3.578125 6.578125 -3.578125 C 6.984375 -3.578125 7.71875 -3.910156 8.78125 -4.578125 C 9.851562 -5.253906 10.625 -5.898438 11.09375 -6.515625 C 11.5625 -7.140625 11.945312 -7.453125 12.25 -7.453125 C 12.539062 -7.453125 12.6875 -7.085938 12.6875 -6.359375 C 12.6875 -5.640625 12.429688 -4.898438 11.921875 -4.140625 C 11.410156 -3.378906 10.765625 -2.6875 9.984375 -2.0625 C 9.210938 -1.4375 8.351562 -0.921875 7.40625 -0.515625 C 6.457031 -0.109375 5.628906 0.09375 4.921875 0.09375 C 4.222656 0.09375 3.6875 -0.0664062 3.3125 -0.390625 C 2.9375 -0.722656 2.625 -1.171875 2.375 -1.734375 Z M 2.375 -1.734375 "/></g></g></g><g fill="#263b7e" fill-opacity="1"><g transform="translate(123.155393, 32.690126)"><g><path d="M 8.25 -15.484375 C 9.675781 -15.492188 10.738281 -15.226562 11.4375 -14.6875 C 12.144531 -14.144531 12.5 -13.367188 12.5 -12.359375 C 12.5 -11.347656 12.191406 -10.484375 11.578125 -9.765625 C 10.972656 -9.054688 10.234375 -8.550781 9.359375 -8.25 C 9.984375 -7.601562 10.546875 -6.953125 11.046875 -6.296875 C 11.546875 -5.640625 11.796875 -4.945312 11.796875 -4.21875 C 11.796875 -2.789062 11.226562 -1.6875 10.09375 -0.90625 C 8.96875 -0.132812 7.394531 0.25 5.375 0.25 C 3.363281 0.25 1.859375 -0.144531 0.859375 -0.9375 C -0.136719 -1.738281 -0.640625 -2.644531 -0.640625 -3.65625 C -0.640625 -4.664062 -0.390625 -5.585938 0.109375 -6.421875 C 0.609375 -7.253906 1.144531 -7.671875 1.71875 -7.671875 C 2.0625 -7.671875 2.304688 -7.546875 2.453125 -7.296875 C 2.609375 -7.054688 2.890625 -6.347656 3.296875 -5.171875 C 3.441406 -4.753906 3.6875 -4.351562 4.03125 -3.96875 C 4.8125 -3.09375 6.054688 -2.65625 7.765625 -2.65625 C 7.515625 -3.46875 7.101562 -4.164062 6.53125 -4.75 C 5.96875 -5.332031 5.410156 -5.898438 4.859375 -6.453125 C 4.304688 -7.003906 3.816406 -7.59375 3.390625 -8.21875 C 2.960938 -8.851562 2.75 -9.597656 2.75 -10.453125 C 2.75 -11.984375 3.320312 -13.226562 4.46875 -14.1875 C 5.5625 -15.039062 6.820312 -15.472656 8.25 -15.484375 Z M 8.125 -9.5625 C 8.976562 -10.476562 9.40625 -11.210938 9.40625 -11.765625 C 9.40625 -12.015625 9.3125 -12.238281 9.125 -12.4375 C 8.945312 -12.644531 8.6875 -12.75 8.34375 -12.75 C 8 -12.75 7.671875 -12.707031 7.359375 -12.625 C 7.054688 -12.539062 6.8125 -12.476562 6.625 -12.4375 C 6.625 -11.625 7.125 -10.664062 8.125 -9.5625 Z M 8.125 -9.5625 "/></g></g></g><g fill="#263b7e" fill-opacity="1"><g transform="translate(135.973968, 32.690126)"><g><path d="M 20.59375 -7.546875 C 20.96875 -7.546875 21.15625 -7.054688 21.15625 -6.078125 C 21.15625 -5.546875 20.929688 -4.898438 20.484375 -4.140625 C 20.046875 -3.378906 19.46875 -2.6875 18.75 -2.0625 C 18.03125 -1.4375 17.234375 -0.921875 16.359375 -0.515625 C 15.492188 -0.109375 14.644531 0.09375 13.8125 0.09375 C 12.675781 0.09375 11.921875 -0.894531 11.546875 -2.875 C 10.984375 -1.957031 10.253906 -1.207031 9.359375 -0.625 C 8.472656 -0.0390625 7.273438 0.25 5.765625 0.25 C 4.265625 0.25 3.054688 -0.21875 2.140625 -1.15625 C 1.222656 -2.09375 0.773438 -3.234375 0.796875 -4.578125 C 0.796875 -8.191406 2 -11.046875 4.40625 -13.140625 C 5.4375 -14.015625 6.390625 -14.585938 7.265625 -14.859375 C 8.148438 -15.140625 9.082031 -15.28125 10.0625 -15.28125 C 11.050781 -15.28125 11.851562 -15.109375 12.46875 -14.765625 C 12.769531 -15.390625 13.109375 -15.703125 13.484375 -15.703125 C 14.234375 -15.703125 14.941406 -15.375 15.609375 -14.71875 C 16.285156 -14.070312 16.625 -13.460938 16.625 -12.890625 C 16.320312 -12.179688 15.882812 -11.335938 15.3125 -10.359375 C 15.144531 -9.378906 15.0625 -8.003906 15.0625 -6.234375 C 15.0625 -4.460938 15.285156 -3.578125 15.734375 -3.578125 C 16.285156 -3.578125 17.625 -4.6875 19.75 -6.90625 C 20.132812 -7.332031 20.414062 -7.546875 20.59375 -7.546875 Z M 5.5 -5.625 C 5.5 -3.988281 6.109375 -3.171875 7.328125 -3.171875 C 8.617188 -3.191406 9.691406 -3.882812 10.546875 -5.25 C 10.847656 -5.71875 11.09375 -6.289062 11.28125 -6.96875 C 11.28125 -9.351562 11.492188 -11.398438 11.921875 -13.109375 C 10.191406 -12.765625 8.6875 -11.929688 7.40625 -10.609375 C 6.132812 -9.285156 5.5 -7.625 5.5 -5.625 Z M 5.5 -5.625 "/></g></g></g><g fill="#263b7e" fill-opacity="1"><g transform="translate(154.578475, 32.690126)"><g><path d="M 8.09375 0.09375 C 5.039062 0.113281 2.960938 -1.023438 1.859375 -3.328125 C 1.472656 -4.140625 1.28125 -5.15625 1.28125 -6.375 C 1.28125 -7.601562 1.382812 -8.910156 1.59375 -10.296875 C 2.019531 -13.066406 2.84375 -15.625 4.0625 -17.96875 C 4.675781 -19.15625 5.367188 -20.175781 6.140625 -21.03125 C 7.816406 -22.90625 9.691406 -23.832031 11.765625 -23.8125 C 12.679688 -23.8125 13.398438 -23.5625 13.921875 -23.0625 C 14.441406 -22.5625 14.703125 -21.84375 14.703125 -20.90625 C 14.703125 -19.96875 14.425781 -19.023438 13.875 -18.078125 C 13.320312 -17.128906 12.613281 -16.148438 11.75 -15.140625 C 10.882812 -14.128906 9.929688 -13.066406 8.890625 -11.953125 C 7.847656 -10.847656 6.820312 -9.644531 5.8125 -8.34375 L 5.8125 -7.0625 C 5.8125 -5.875 6.066406 -5 6.578125 -4.4375 C 7.097656 -3.882812 7.695312 -3.609375 8.375 -3.609375 C 10.207031 -3.609375 11.828125 -4.515625 13.234375 -6.328125 C 13.804688 -7.078125 14.242188 -7.453125 14.546875 -7.453125 C 14.847656 -7.453125 15 -7.085938 15 -6.359375 C 15 -5.640625 14.800781 -4.898438 14.40625 -4.140625 C 14.007812 -3.378906 13.488281 -2.6875 12.84375 -2.0625 C 12.207031 -1.4375 11.472656 -0.921875 10.640625 -0.515625 C 9.816406 -0.109375 8.96875 0.09375 8.09375 0.09375 Z M 9.8125 -17.0625 C 10.257812 -17.625 10.609375 -18.128906 10.859375 -18.578125 C 11.117188 -19.023438 11.25 -19.488281 11.25 -19.96875 C 11.25 -20.445312 11.078125 -20.6875 10.734375 -20.6875 C 9.992188 -20.6875 9.171875 -19.914062 8.265625 -18.375 C 7.359375 -16.84375 6.679688 -14.832031 6.234375 -12.34375 C 6.960938 -13.445312 7.628906 -14.367188 8.234375 -15.109375 C 8.835938 -15.859375 9.363281 -16.507812 9.8125 -17.0625 Z M 9.8125 -17.0625 "/></g></g></g><g clip-path="url(#34d00b474c)"><g fill="#263b7e" fill-opacity="1"><g transform="translate(166.725741, 32.690126)"><g><path d="M 8.40625 -3.484375 C 10.070312 -3.484375 11.679688 -4.144531 13.234375 -5.46875 C 13.804688 -5.957031 14.273438 -6.410156 14.640625 -6.828125 C 15.003906 -7.242188 15.28125 -7.453125 15.46875 -7.453125 C 15.769531 -7.453125 15.921875 -7.148438 15.921875 -6.546875 C 15.921875 -5.953125 15.757812 -5.285156 15.4375 -4.546875 C 15.125 -3.816406 14.59375 -3.097656 13.84375 -2.390625 C 12.007812 -0.671875 9.492188 0.1875 6.296875 0.1875 C 3.765625 0.1875 2.039062 -0.726562 1.125 -2.5625 C 0.800781 -3.195312 0.640625 -4.109375 0.640625 -5.296875 C 0.640625 -6.492188 0.875 -7.738281 1.34375 -9.03125 C 1.8125 -10.320312 2.429688 -11.4375 3.203125 -12.375 C 3.984375 -13.3125 4.882812 -14.039062 5.90625 -14.5625 C 6.9375 -15.082031 8.03125 -15.34375 9.1875 -15.34375 C 10.351562 -15.34375 11.25 -15.054688 11.875 -14.484375 C 12.5 -13.910156 12.8125 -13.164062 12.8125 -12.25 C 12.8125 -11.332031 12.582031 -10.578125 12.125 -9.984375 C 11.664062 -9.398438 11.070312 -8.910156 10.34375 -8.515625 C 9.625 -8.117188 8.820312 -7.765625 7.9375 -7.453125 C 7.0625 -7.148438 6.195312 -6.804688 5.34375 -6.421875 L 5.34375 -5.625 C 5.363281 -4.851562 5.679688 -4.304688 6.296875 -3.984375 C 6.910156 -3.671875 7.613281 -3.503906 8.40625 -3.484375 Z M 7.859375 -12.5 C 6.753906 -12.5 5.988281 -11.207031 5.5625 -8.625 C 6.007812 -8.925781 6.429688 -9.191406 6.828125 -9.421875 C 7.222656 -9.660156 7.566406 -9.890625 7.859375 -10.109375 C 8.503906 -10.578125 8.835938 -11.109375 8.859375 -11.703125 C 8.859375 -12.234375 8.523438 -12.5 7.859375 -12.5 Z M 7.859375 -12.5 "/></g></g></g></g></g></g></svg>