<svg xmlns="http://www.w3.org/2000/svg" xmlns:xlink="http://www.w3.org/1999/xlink" width="1920" zoomAndPan="magnify" viewBox="0 0 1440 809.999993" height="1080" preserveAspectRatio="xMidYMid meet" version="1.0"><defs><g/><clipPath id="9e7406ca2d"><path d="M 0.761719 34 L 143 34 L 143 141 L 0.761719 141 Z M 0.761719 34 " clip-rule="nonzero"/></clipPath><clipPath id="a1927fea48"><path d="M 613 71 L 696.761719 71 L 696.761719 140 L 613 140 Z M 613 71 " clip-rule="nonzero"/></clipPath><clipPath id="483b3a6a9d"><rect x="0" width="697" y="0" height="186"/></clipPath><clipPath id="fc56c35122"><path d="M 0.320312 6 L 17 6 L 17 26 L 0.320312 26 Z M 0.320312 6 " clip-rule="nonzero"/></clipPath><clipPath id="fd5d6103a7"><path d="M 130 13 L 142.398438 13 L 142.398438 26 L 130 26 Z M 130 13 " clip-rule="nonzero"/></clipPath><clipPath id="ae8d4199f2"><rect x="0" width="143" y="0" height="34"/></clipPath><clipPath id="2338b13e25"><path d="M 0.519531 6 L 27 6 L 27 26 L 0.519531 26 Z M 0.519531 6 " clip-rule="nonzero"/></clipPath><clipPath id="e92d89bba7"><rect x="0" width="365" y="0" height="35"/></clipPath></defs><g transform="matrix(1, 0, 0, 1, 377, 310)"><g clip-path="url(#483b3a6a9d)"><g clip-path="url(#9e7406ca2d)"><g fill="#263b7e" fill-opacity="1"><g transform="translate(0.851306, 137.948927)"><g><path d="M 139.359375 -32.4375 C 140.921875 -32.4375 141.703125 -30.328125 141.703125 -26.109375 C 141.703125 -23.816406 140.738281 -21.046875 138.8125 -17.796875 C 136.882812 -14.546875 134.382812 -11.566406 131.3125 -8.859375 C 128.25 -6.160156 124.835938 -3.941406 121.078125 -2.203125 C 117.328125 -0.460938 113.363281 0.40625 109.1875 0.40625 C 105.019531 0.40625 101.769531 -0.941406 99.4375 -3.640625 C 97.101562 -6.347656 95.9375 -9.375 95.9375 -12.71875 C 95.9375 -16.0625 96.484375 -19.835938 97.578125 -24.046875 C 98.679688 -28.265625 99.875 -32.664062 101.15625 -37.25 C 104.632812 -49.4375 106.421875 -58.003906 106.515625 -62.953125 C 106.515625 -65.054688 106.238281 -66.679688 105.6875 -67.828125 C 105.132812 -68.972656 104.082031 -69.546875 102.53125 -69.546875 C 99.78125 -69.546875 96.847656 -67.894531 93.734375 -64.59375 C 90.617188 -61.289062 87.6875 -57.078125 84.9375 -51.953125 C 78.613281 -40.222656 75.269531 -28.769531 74.90625 -17.59375 C 75.082031 -16.3125 75.265625 -15.023438 75.453125 -13.734375 C 75.640625 -12.453125 75.734375 -11.082031 75.734375 -9.625 C 75.734375 -6.6875 74.285156 -4.003906 71.390625 -1.578125 C 68.503906 0.847656 65.273438 2.0625 61.703125 2.0625 C 59.597656 2.0625 58.039062 1.027344 57.03125 -1.03125 C 56.03125 -3.09375 55.53125 -5.632812 55.53125 -8.65625 C 55.53125 -11.675781 56.210938 -15.796875 57.578125 -21.015625 C 58.953125 -26.242188 60.46875 -31.789062 62.125 -37.65625 C 66.519531 -53.144531 68.765625 -64.691406 68.859375 -72.296875 C 68.859375 -76.140625 68.375 -79.160156 67.40625 -81.359375 C 66.445312 -83.554688 64.59375 -84.65625 61.84375 -84.65625 C 56.894531 -84.65625 51.992188 -81.128906 47.140625 -74.078125 C 42.285156 -67.023438 37.929688 -56.078125 34.078125 -41.234375 C 33.078125 -37.378906 32.300781 -34.035156 31.75 -31.203125 L 31.609375 -28.59375 C 33.347656 -20.15625 34.21875 -14.65625 34.21875 -12.09375 C 34.21875 -6.78125 32.34375 -3.207031 28.59375 -1.375 C 26.84375 -0.550781 25.164062 0.222656 23.5625 0.953125 C 21.96875 1.691406 20.253906 2.0625 18.421875 2.0625 C 13.835938 2.0625 11.546875 -2.3125 11.546875 -11.0625 C 11.546875 -19.8125 13.972656 -36.921875 18.828125 -62.390625 C 20.566406 -71.554688 21.4375 -76.691406 21.4375 -77.796875 C 21.4375 -85.210938 19.5625 -88.921875 15.8125 -88.921875 C 14.519531 -88.921875 13.347656 -88.550781 12.296875 -87.8125 C 11.242188 -87.082031 10.191406 -86.304688 9.140625 -85.484375 C 8.085938 -84.660156 7.007812 -83.878906 5.90625 -83.140625 C 4.8125 -82.410156 3.550781 -82.046875 2.125 -82.046875 C 0.707031 -82.046875 0 -83.285156 0 -85.765625 C 0 -90.796875 2.335938 -94.914062 7.015625 -98.125 C 11.503906 -101.425781 16.953125 -103.078125 23.359375 -103.078125 C 31.609375 -103.078125 36.46875 -99.226562 37.9375 -91.53125 C 38.300781 -89.238281 38.570312 -86.8125 38.75 -84.25 C 45.53125 -96.988281 54.097656 -103.359375 64.453125 -103.359375 C 75.722656 -103.359375 82.1875 -97.953125 83.84375 -87.140625 C 84.382812 -84.023438 84.613281 -80.679688 84.53125 -77.109375 L 84.53125 -76 C 90.476562 -84.25 97.53125 -88.375 105.6875 -88.375 C 117.226562 -88.375 123 -81.410156 123 -67.484375 C 123 -61.429688 122.0625 -54.347656 120.1875 -46.234375 C 118.3125 -38.128906 116.9375 -32.3125 116.0625 -28.78125 C 115.195312 -25.257812 114.765625 -22.535156 114.765625 -20.609375 C 114.765625 -17.128906 115.976562 -15.390625 118.40625 -15.390625 C 120.832031 -15.390625 126.625 -20.15625 135.78125 -29.6875 C 137.4375 -31.519531 138.628906 -32.4375 139.359375 -32.4375 Z M 139.359375 -32.4375 "/></g></g></g></g><g fill="#263b7e" fill-opacity="1"><g transform="translate(131.553793, 137.948927)"><g><path d="M 36.140625 -14.984375 C 43.285156 -14.984375 50.207031 -17.820312 56.90625 -23.5 C 59.375 -25.601562 61.382812 -27.546875 62.9375 -29.328125 C 64.5 -31.117188 65.691406 -32.015625 66.515625 -32.015625 C 67.796875 -32.015625 68.4375 -30.734375 68.4375 -28.171875 C 68.4375 -25.609375 67.75 -22.742188 66.375 -19.578125 C 65.007812 -16.421875 62.722656 -13.332031 59.515625 -10.3125 C 51.628906 -2.882812 40.816406 0.828125 27.078125 0.828125 C 16.171875 0.828125 8.75 -3.113281 4.8125 -11 C 3.4375 -13.75 2.75 -17.6875 2.75 -22.8125 C 2.75 -27.945312 3.753906 -33.285156 5.765625 -38.828125 C 7.785156 -44.367188 10.46875 -49.15625 13.8125 -53.1875 C 17.15625 -57.21875 21.023438 -60.351562 25.421875 -62.59375 C 29.816406 -64.84375 34.507812 -65.96875 39.5 -65.96875 C 44.5 -65.96875 48.347656 -64.726562 51.046875 -62.25 C 53.753906 -59.78125 55.109375 -56.578125 55.109375 -52.640625 C 55.109375 -48.703125 54.125 -45.472656 52.15625 -42.953125 C 50.1875 -40.429688 47.644531 -38.320312 44.53125 -36.625 C 41.414062 -34.925781 37.957031 -33.410156 34.15625 -32.078125 C 30.351562 -30.753906 26.617188 -29.269531 22.953125 -27.625 L 22.953125 -24.1875 C 23.046875 -20.882812 24.421875 -18.546875 27.078125 -17.171875 C 29.734375 -15.804688 32.753906 -15.078125 36.140625 -14.984375 Z M 33.8125 -53.734375 C 29.039062 -53.734375 25.742188 -48.191406 23.921875 -37.109375 C 25.835938 -38.390625 27.644531 -39.535156 29.34375 -40.546875 C 31.039062 -41.554688 32.53125 -42.519531 33.8125 -43.4375 C 36.5625 -45.445312 37.976562 -47.734375 38.0625 -50.296875 C 38.0625 -52.585938 36.644531 -53.734375 33.8125 -53.734375 Z M 33.8125 -53.734375 "/></g></g></g><g fill="#263b7e" fill-opacity="1"><g transform="translate(189.002383, 137.948927)"><g><path d="M 46.859375 -58 C 46.859375 -64.132812 51.625 -67.203125 61.15625 -67.203125 C 63.539062 -67.203125 65.03125 -66.421875 65.625 -64.859375 C 66.21875 -63.304688 66.515625 -60.925781 66.515625 -57.71875 C 66.515625 -53.226562 65.503906 -46.265625 63.484375 -36.828125 C 61.472656 -27.390625 60.515625 -21.023438 60.609375 -17.734375 C 60.609375 -16.171875 61.113281 -15.390625 62.125 -15.390625 C 63.5 -15.390625 65.191406 -16.257812 67.203125 -18 C 69.222656 -19.738281 71.238281 -21.640625 73.25 -23.703125 C 75.269531 -25.765625 77.125 -27.664062 78.8125 -29.40625 C 80.507812 -31.144531 81.679688 -32.015625 82.328125 -32.015625 C 83.609375 -32.015625 84.25 -30.457031 84.25 -27.34375 C 84.25 -20.9375 81.085938 -14.753906 74.765625 -8.796875 C 64.140625 -2.566406 57.40625 0.546875 54.5625 0.546875 C 54.289062 0.546875 54.0625 0.5 53.875 0.40625 C 50.394531 0.40625 47.941406 -0.734375 46.515625 -3.015625 C 45.097656 -5.304688 44.207031 -8.195312 43.84375 -11.6875 C 42.007812 -8.289062 39.488281 -5.378906 36.28125 -2.953125 C 33.070312 -0.523438 29.40625 0.6875 25.28125 0.6875 C 18.050781 0.6875 12.488281 -0.6875 8.59375 -3.4375 C 4.695312 -6.1875 2.75 -10.265625 2.75 -15.671875 C 2.75 -18.046875 3.09375 -20.238281 3.78125 -22.25 C 4.46875 -24.269531 5.585938 -26.75 7.140625 -29.6875 L 11.125 -63.5 C 13.96875 -65.695312 18.046875 -66.796875 23.359375 -66.796875 C 27.578125 -66.796875 29.960938 -64.046875 30.515625 -58.546875 C 30.972656 -54.054688 30.765625 -50.046875 29.890625 -46.515625 C 29.023438 -42.992188 27.859375 -38.550781 26.390625 -33.1875 C 24.921875 -27.832031 24.1875 -23.09375 24.1875 -18.96875 C 24.1875 -15.664062 26.25 -14.015625 30.375 -14.015625 C 34.863281 -14.015625 38.757812 -17.957031 42.0625 -25.84375 C 44.625 -31.882812 46.363281 -38.617188 47.28125 -46.046875 C 47.1875 -46.773438 47.113281 -47.710938 47.0625 -48.859375 C 47.019531 -50.003906 46.972656 -51.125 46.921875 -52.21875 C 46.878906 -53.320312 46.859375 -54.425781 46.859375 -55.53125 Z M 46.859375 -58 "/></g></g></g><g fill="#263b7e" fill-opacity="1"><g transform="translate(262.256213, 137.948927)"><g/></g></g><g fill="#263b7e" fill-opacity="1"><g transform="translate(317.230993, 137.948927)"><g><path d="M 23.234375 -29 C 23.234375 -21.03125 26.617188 -17.046875 33.390625 -17.046875 C 40.816406 -17.046875 45.8125 -19.609375 48.375 -24.734375 C 49.289062 -26.566406 49.75 -28.925781 49.75 -31.8125 C 49.75 -34.695312 49.0625 -37.378906 47.6875 -39.859375 C 45.394531 -43.796875 41.457031 -48.144531 35.875 -52.90625 C 26.613281 -60.789062 21.984375 -68.96875 21.984375 -77.4375 C 21.984375 -85.914062 24.640625 -92.445312 29.953125 -97.03125 C 35.273438 -101.613281 41.367188 -103.90625 48.234375 -103.90625 C 55.109375 -103.90625 60.5625 -102.160156 64.59375 -98.671875 C 68.625 -95.191406 70.640625 -89.972656 70.640625 -83.015625 C 70.640625 -78.429688 69.101562 -74.441406 66.03125 -71.046875 C 62.96875 -67.660156 58.914062 -65.554688 53.875 -64.734375 C 56.164062 -62.804688 58.457031 -60.835938 60.75 -58.828125 C 62.945312 -56.804688 64.960938 -54.601562 66.796875 -52.21875 C 70.828125 -46.820312 72.84375 -40.363281 72.84375 -32.84375 C 72.84375 -27.625 71.628906 -22.90625 69.203125 -18.6875 C 66.773438 -14.476562 63.613281 -10.925781 59.71875 -8.03125 C 55.820312 -5.144531 51.445312 -2.921875 46.59375 -1.359375 C 41.738281 0.191406 37.203125 0.96875 32.984375 0.96875 C 24.003906 0.96875 17.039062 -1.09375 12.09375 -5.21875 C 6.320312 -9.894531 3.4375 -16.628906 3.4375 -25.421875 C 3.4375 -31.191406 5.3125 -36.78125 9.0625 -42.1875 C 12.820312 -47.59375 16.8125 -50.296875 21.03125 -50.296875 C 24.320312 -50.296875 25.96875 -49.289062 25.96875 -47.28125 C 25.96875 -44.34375 25.507812 -41.429688 24.59375 -38.546875 C 23.6875 -35.660156 23.234375 -32.476562 23.234375 -29 Z M 49.890625 -68.03125 C 55.109375 -73.25 57.71875 -78.703125 57.71875 -84.390625 C 57.71875 -86.128906 56.800781 -87.59375 54.96875 -88.78125 C 52.957031 -89.882812 50.851562 -90.4375 48.65625 -90.4375 C 43.707031 -90.4375 40.132812 -88.832031 37.9375 -85.625 C 39.03125 -81.6875 40.65625 -78.34375 42.8125 -75.59375 C 44.96875 -72.84375 47.328125 -70.320312 49.890625 -68.03125 Z M 49.890625 -68.03125 "/></g></g></g><g fill="#263b7e" fill-opacity="1"><g transform="translate(395.570003, 137.948927)"><g><path d="M 88.515625 -32.4375 C 90.160156 -32.4375 90.984375 -30.328125 90.984375 -26.109375 C 90.984375 -23.816406 90.019531 -21.046875 88.09375 -17.796875 C 86.175781 -14.546875 83.679688 -11.566406 80.609375 -8.859375 C 77.535156 -6.160156 74.117188 -3.941406 70.359375 -2.203125 C 66.609375 -0.460938 62.945312 0.40625 59.375 0.40625 C 54.519531 0.40625 51.265625 -3.851562 49.609375 -12.375 C 47.234375 -8.425781 44.117188 -5.191406 40.265625 -2.671875 C 36.421875 -0.160156 31.269531 1.09375 24.8125 1.09375 C 18.351562 1.09375 13.148438 -0.921875 9.203125 -4.953125 C 5.265625 -8.984375 3.34375 -13.882812 3.4375 -19.65625 C 3.4375 -35.226562 8.613281 -47.503906 18.96875 -56.484375 C 23.363281 -60.242188 27.460938 -62.71875 31.265625 -63.90625 C 35.066406 -65.09375 39.070312 -65.6875 43.28125 -65.6875 C 47.5 -65.6875 50.9375 -64.957031 53.59375 -63.5 C 54.882812 -66.15625 56.351562 -67.484375 58 -67.484375 C 61.207031 -67.484375 64.253906 -66.082031 67.140625 -63.28125 C 70.023438 -60.488281 71.46875 -57.859375 71.46875 -55.390625 C 70.1875 -52.367188 68.304688 -48.75 65.828125 -44.53125 C 65.097656 -40.3125 64.734375 -34.398438 64.734375 -26.796875 C 64.734375 -19.191406 65.695312 -15.390625 67.625 -15.390625 C 70 -15.390625 75.769531 -20.15625 84.9375 -29.6875 C 86.582031 -31.519531 87.773438 -32.4375 88.515625 -32.4375 Z M 23.640625 -24.1875 C 23.640625 -17.132812 26.25 -13.609375 31.46875 -13.609375 C 37.0625 -13.703125 41.691406 -16.679688 45.359375 -22.546875 C 46.640625 -24.554688 47.691406 -27.03125 48.515625 -29.96875 C 48.515625 -40.226562 49.429688 -49.019531 51.265625 -56.34375 C 43.835938 -54.882812 37.375 -51.3125 31.875 -45.625 C 26.382812 -39.945312 23.640625 -32.800781 23.640625 -24.1875 Z M 23.640625 -24.1875 "/></g></g></g><g fill="#263b7e" fill-opacity="1"><g transform="translate(475.558265, 137.948927)"><g><path d="M 34.765625 0.40625 C 21.671875 0.5 12.738281 -4.398438 7.96875 -14.296875 C 6.320312 -17.773438 5.5 -22.148438 5.5 -27.421875 C 5.5 -32.691406 5.957031 -38.300781 6.875 -44.25 C 8.707031 -56.164062 12.234375 -67.160156 17.453125 -77.234375 C 20.109375 -82.367188 23.085938 -86.769531 26.390625 -90.4375 C 33.628906 -98.5 41.691406 -102.484375 50.578125 -102.390625 C 54.515625 -102.390625 57.601562 -101.3125 59.84375 -99.15625 C 62.09375 -97.007812 63.21875 -93.921875 63.21875 -89.890625 C 63.21875 -85.859375 62.023438 -81.800781 59.640625 -77.71875 C 57.265625 -73.644531 54.21875 -69.429688 50.5 -65.078125 C 46.789062 -60.722656 42.691406 -56.160156 38.203125 -51.390625 C 33.710938 -46.628906 29.316406 -41.457031 25.015625 -35.875 L 25.015625 -30.375 C 25.015625 -25.238281 26.113281 -21.476562 28.3125 -19.09375 C 30.507812 -16.71875 33.078125 -15.53125 36.015625 -15.53125 C 43.890625 -15.53125 50.851562 -19.425781 56.90625 -27.21875 C 59.375 -30.414062 61.25 -32.015625 62.53125 -32.015625 C 63.8125 -32.015625 64.453125 -30.457031 64.453125 -27.34375 C 64.453125 -24.226562 63.601562 -21.046875 61.90625 -17.796875 C 60.21875 -14.546875 58 -11.566406 55.25 -8.859375 C 52.5 -6.160156 49.335938 -3.941406 45.765625 -2.203125 C 42.191406 -0.460938 38.523438 0.40625 34.765625 0.40625 Z M 42.1875 -73.390625 C 44.113281 -75.773438 45.625 -77.925781 46.71875 -79.84375 C 47.820312 -81.769531 48.375 -83.765625 48.375 -85.828125 C 48.375 -87.890625 47.640625 -88.921875 46.171875 -88.921875 C 42.972656 -88.921875 39.425781 -85.617188 35.53125 -79.015625 C 31.632812 -72.421875 28.722656 -63.765625 26.796875 -53.046875 C 29.910156 -57.816406 32.773438 -61.800781 35.390625 -65 C 38.003906 -68.207031 40.269531 -71.003906 42.1875 -73.390625 Z M 42.1875 -73.390625 "/></g></g></g><g fill="#263b7e" fill-opacity="1"><g transform="translate(530.532979, 137.948927)"><g><path d="M 88.515625 -32.4375 C 90.160156 -32.4375 90.984375 -30.328125 90.984375 -26.109375 C 90.984375 -23.816406 90.019531 -21.046875 88.09375 -17.796875 C 86.175781 -14.546875 83.679688 -11.566406 80.609375 -8.859375 C 77.535156 -6.160156 74.117188 -3.941406 70.359375 -2.203125 C 66.609375 -0.460938 62.945312 0.40625 59.375 0.40625 C 54.519531 0.40625 51.265625 -3.851562 49.609375 -12.375 C 47.234375 -8.425781 44.117188 -5.191406 40.265625 -2.671875 C 36.421875 -0.160156 31.269531 1.09375 24.8125 1.09375 C 18.351562 1.09375 13.148438 -0.921875 9.203125 -4.953125 C 5.265625 -8.984375 3.34375 -13.882812 3.4375 -19.65625 C 3.4375 -35.226562 8.613281 -47.503906 18.96875 -56.484375 C 23.363281 -60.242188 27.460938 -62.71875 31.265625 -63.90625 C 35.066406 -65.09375 39.070312 -65.6875 43.28125 -65.6875 C 47.5 -65.6875 50.9375 -64.957031 53.59375 -63.5 C 54.882812 -66.15625 56.351562 -67.484375 58 -67.484375 C 61.207031 -67.484375 64.253906 -66.082031 67.140625 -63.28125 C 70.023438 -60.488281 71.46875 -57.859375 71.46875 -55.390625 C 70.1875 -52.367188 68.304688 -48.75 65.828125 -44.53125 C 65.097656 -40.3125 64.734375 -34.398438 64.734375 -26.796875 C 64.734375 -19.191406 65.695312 -15.390625 67.625 -15.390625 C 70 -15.390625 75.769531 -20.15625 84.9375 -29.6875 C 86.582031 -31.519531 87.773438 -32.4375 88.515625 -32.4375 Z M 15.390625 -82.734375 C 13.460938 -82.734375 12.5 -83.925781 12.5 -86.3125 C 12.5 -87.59375 13.375 -89.195312 15.125 -91.125 C 19.0625 -95.976562 23.132812 -99.34375 27.34375 -101.21875 C 31.5625 -103.101562 35.132812 -104.046875 38.0625 -104.046875 C 41 -104.046875 43.613281 -103.265625 45.90625 -101.703125 C 48.195312 -100.148438 50.347656 -98.429688 52.359375 -96.546875 C 54.378906 -94.671875 56.347656 -92.953125 58.265625 -91.390625 C 60.191406 -89.835938 61.890625 -89.0625 63.359375 -89.0625 C 64.828125 -89.0625 65.878906 -89.332031 66.515625 -89.875 C 67.160156 -90.425781 67.941406 -91.046875 68.859375 -91.734375 C 69.773438 -92.421875 70.847656 -93.0625 72.078125 -93.65625 C 73.316406 -94.257812 75.171875 -94.5625 77.640625 -94.5625 C 80.117188 -94.5625 81.359375 -93.734375 81.359375 -92.078125 C 81.359375 -91.535156 81.222656 -91.171875 80.953125 -90.984375 C 76.640625 -82.003906 69.722656 -77.515625 60.203125 -77.515625 C 57.359375 -77.515625 54.835938 -78.242188 52.640625 -79.703125 C 50.441406 -81.171875 48.332031 -82.753906 46.3125 -84.453125 C 44.300781 -86.148438 42.285156 -87.726562 40.265625 -89.1875 C 38.253906 -90.65625 36.007812 -91.390625 33.53125 -91.390625 C 31.882812 -91.390625 30.191406 -89.878906 28.453125 -86.859375 C 27.078125 -84.847656 23.820312 -83.566406 18.6875 -83.015625 C 17.40625 -82.828125 16.304688 -82.734375 15.390625 -82.734375 Z M 23.640625 -24.1875 C 23.640625 -17.132812 26.25 -13.609375 31.46875 -13.609375 C 37.0625 -13.703125 41.691406 -16.679688 45.359375 -22.546875 C 46.640625 -24.554688 47.691406 -27.03125 48.515625 -29.96875 C 48.515625 -40.226562 49.429688 -49.019531 51.265625 -56.34375 C 43.835938 -54.882812 37.375 -51.3125 31.875 -45.625 C 26.382812 -39.945312 23.640625 -32.800781 23.640625 -24.1875 Z M 23.640625 -24.1875 "/></g></g></g><g clip-path="url(#a1927fea48)"><g fill="#263b7e" fill-opacity="1"><g transform="translate(610.52124, 137.948927)"><g><path d="M 59.640625 -11.6875 C 52.410156 -3.164062 43.734375 1.09375 33.609375 1.09375 C 23.484375 1.09375 15.898438 -1.492188 10.859375 -6.671875 C 5.816406 -11.847656 3.34375 -18.28125 3.4375 -25.96875 C 3.34375 -36.875 6.773438 -46.265625 13.734375 -54.140625 C 20.703125 -62.023438 29.820312 -65.96875 41.09375 -65.96875 C 46.226562 -65.96875 50.351562 -65.328125 53.46875 -64.046875 C 58.875 -61.847656 61.578125 -59.785156 61.578125 -57.859375 C 61.578125 -56.390625 57.796875 -55.632812 50.234375 -55.59375 C 42.671875 -55.550781 36.347656 -52.941406 31.265625 -47.765625 C 26.179688 -42.585938 23.640625 -36.054688 23.640625 -28.171875 C 23.640625 -24.046875 24.851562 -20.585938 27.28125 -17.796875 C 29.707031 -15.003906 33.140625 -13.609375 37.578125 -13.609375 C 42.023438 -13.609375 45.71875 -14.523438 48.65625 -16.359375 C 42.144531 -20.753906 38.890625 -27.117188 38.890625 -35.453125 C 38.796875 -39.859375 40.375 -43.867188 43.625 -47.484375 C 46.882812 -51.097656 51.054688 -52.925781 56.140625 -52.96875 C 61.222656 -53.019531 64.863281 -51.625 67.0625 -48.78125 C 69.269531 -45.945312 70.375 -42.304688 70.375 -37.859375 C 70.375 -33.421875 69.316406 -28.726562 67.203125 -23.78125 L 68.03125 -23.78125 C 72.0625 -23.875 75.546875 -25.289062 78.484375 -28.03125 C 79.578125 -29.132812 80.515625 -30.097656 81.296875 -30.921875 C 82.078125 -31.742188 82.878906 -32.15625 83.703125 -32.15625 C 84.984375 -32.15625 85.625 -30.644531 85.625 -27.625 C 85.625 -22.03125 83.972656 -17.835938 80.671875 -15.046875 C 77.378906 -12.253906 73.738281 -10.859375 69.75 -10.859375 C 65.757812 -10.859375 62.390625 -11.132812 59.640625 -11.6875 Z M 58.40625 -27.625 C 59.96875 -30.925781 60.75 -34.132812 60.75 -37.25 C 60.75 -40.363281 59.738281 -41.921875 57.71875 -41.921875 C 56.894531 -41.921875 56.207031 -41.320312 55.65625 -40.125 C 55.113281 -38.9375 54.84375 -37.796875 54.84375 -36.703125 C 54.84375 -33.035156 56.03125 -30.007812 58.40625 -27.625 Z M 58.40625 -27.625 "/></g></g></g></g></g></g><g transform="matrix(1, 0, 0, 1, 922, 454)"><g clip-path="url(#ae8d4199f2)"><g clip-path="url(#fc56c35122)"><g fill="#263b7e" fill-opacity="1"><g transform="translate(0.417225, 24.920364)"><g><path d="M 10.125 -8.703125 C 8.519531 -8.703125 7.734375 -9.109375 7.765625 -9.921875 C 7.765625 -10.679688 8.535156 -11.0625 10.078125 -11.0625 C 10.441406 -11.0625 10.785156 -11.019531 11.109375 -10.9375 C 11.660156 -11.488281 11.9375 -12.316406 11.9375 -13.421875 C 11.9375 -15.335938 10.65625 -16.296875 8.09375 -16.296875 C 6.75 -16.296875 5.472656 -16.007812 4.265625 -15.4375 C 3.816406 -15.21875 3.414062 -15.015625 3.0625 -14.828125 C 2.707031 -14.648438 2.378906 -14.5625 2.078125 -14.5625 C 1.785156 -14.5625 1.640625 -14.65625 1.640625 -14.84375 C 1.640625 -15.050781 1.800781 -15.363281 2.125 -15.78125 C 2.457031 -16.207031 2.921875 -16.640625 3.515625 -17.078125 C 5.046875 -18.128906 6.773438 -18.664062 8.703125 -18.6875 C 11.234375 -18.6875 13.097656 -18.179688 14.296875 -17.171875 C 15.316406 -16.328125 15.828125 -15.175781 15.828125 -13.71875 C 15.828125 -12.03125 15 -10.738281 13.34375 -9.84375 C 14.9375 -8.9375 15.878906 -7.820312 16.171875 -6.5 C 16.273438 -6.039062 16.328125 -5.425781 16.328125 -4.65625 C 16.328125 -3.894531 16.117188 -3.175781 15.703125 -2.5 C 15.296875 -1.820312 14.742188 -1.253906 14.046875 -0.796875 C 12.648438 0.0976562 10.867188 0.546875 8.703125 0.546875 C 7.171875 0.546875 5.460938 0.195312 3.578125 -0.5 C 2.316406 -0.957031 1.390625 -1.507812 0.796875 -2.15625 C 0.492188 -2.46875 0.347656 -2.78125 0.359375 -3.09375 C 0.367188 -3.414062 0.523438 -3.578125 0.828125 -3.578125 C 1.140625 -3.578125 1.722656 -3.46875 2.578125 -3.25 L 2.578125 -3.28125 C 2.578125 -4.5625 2.726562 -5.882812 3.03125 -7.25 C 3.539062 -9.613281 4.132812 -11.460938 4.8125 -12.796875 C 5.539062 -14.285156 6.296875 -15.03125 7.078125 -15.03125 C 7.285156 -15.03125 7.390625 -14.65625 7.390625 -13.90625 C 7.390625 -13.164062 7.316406 -12.40625 7.171875 -11.625 C 7.035156 -10.851562 6.890625 -10.09375 6.734375 -9.34375 C 6.578125 -8.59375 6.425781 -7.910156 6.28125 -7.296875 C 6.144531 -6.679688 6.078125 -6.242188 6.078125 -5.984375 L 5.828125 -2.234375 C 6.804688 -1.972656 7.632812 -1.84375 8.3125 -1.84375 C 8.988281 -1.84375 9.597656 -1.957031 10.140625 -2.1875 C 11.515625 -2.757812 12.203125 -3.765625 12.203125 -5.203125 C 12.203125 -6.066406 12.117188 -6.78125 11.953125 -7.34375 C 11.796875 -7.90625 11.5 -8.398438 11.0625 -8.828125 C 10.6875 -8.742188 10.375 -8.703125 10.125 -8.703125 Z M 10.125 -8.703125 "/></g></g></g></g><g fill="#263b7e" fill-opacity="1"><g transform="translate(17.984976, 24.920364)"><g><path d="M 7.421875 -1.8125 C 6.585938 -0.664062 5.476562 -0.09375 4.09375 -0.09375 C 2.96875 -0.09375 2.066406 -0.328125 1.390625 -0.796875 C 0.722656 -1.273438 0.390625 -2.023438 0.390625 -3.046875 C 0.390625 -3.484375 0.453125 -3.878906 0.578125 -4.234375 C 0.703125 -4.597656 0.90625 -5.046875 1.1875 -5.578125 L 1.90625 -11.46875 C 2.425781 -11.863281 3.125 -12.0625 4 -12.0625 C 4.738281 -12.0625 5.160156 -11.5625 5.265625 -10.5625 C 5.296875 -10.269531 5.3125 -9.921875 5.3125 -9.515625 C 5.3125 -9.109375 5.242188 -8.679688 5.109375 -8.234375 C 4.453125 -5.953125 4.128906 -4.421875 4.140625 -3.640625 C 4.140625 -3.046875 4.488281 -2.75 5.1875 -2.75 C 5.882812 -2.75 6.394531 -2.972656 6.71875 -3.421875 C 7.050781 -3.867188 7.332031 -4.425781 7.5625 -5.09375 C 8 -6.925781 8.398438 -8.4375 8.765625 -9.625 C 9.140625 -10.8125 9.378906 -11.523438 9.484375 -11.765625 C 9.640625 -12.160156 9.953125 -12.363281 10.421875 -12.375 C 10.878906 -12.363281 11.316406 -12.039062 11.734375 -11.40625 C 12.148438 -10.769531 12.359375 -10.273438 12.359375 -9.921875 C 12.328125 -8.765625 11.609375 -5.847656 10.203125 -1.171875 C 11.273438 -2.015625 12.34375 -3.046875 13.40625 -4.265625 C 13.757812 -4.691406 14.0625 -5.050781 14.3125 -5.34375 C 14.5625 -5.632812 14.757812 -5.78125 14.90625 -5.78125 C 15.144531 -5.78125 15.265625 -5.515625 15.265625 -4.984375 C 15.265625 -3.941406 14.679688 -2.722656 13.515625 -1.328125 C 12.347656 0.0546875 10.921875 1.132812 9.234375 1.90625 C 9.035156 2.570312 8.816406 3.203125 8.578125 3.796875 C 8.347656 4.390625 8.050781 4.910156 7.6875 5.359375 C 6.894531 6.316406 5.6875 6.796875 4.0625 6.796875 C 2.976562 6.796875 2.050781 6.476562 1.28125 5.84375 C 0.507812 5.21875 0.125 4.4375 0.125 3.5 C 0.125 2.96875 0.300781 2.546875 0.65625 2.234375 C 1.007812 1.921875 1.492188 1.660156 2.109375 1.453125 C 2.734375 1.242188 3.457031 1.0625 4.28125 0.90625 C 5.113281 0.75 6.003906 0.554688 6.953125 0.328125 C 7.179688 -0.671875 7.335938 -1.382812 7.421875 -1.8125 Z M 4.046875 4.890625 C 4.816406 4.890625 5.519531 4.210938 6.15625 2.859375 C 5.5625 2.972656 5.03125 3.054688 4.5625 3.109375 C 4.101562 3.171875 3.707031 3.226562 3.375 3.28125 C 2.707031 3.375 2.382812 3.546875 2.40625 3.796875 C 2.40625 4.109375 2.585938 4.367188 2.953125 4.578125 C 3.328125 4.796875 3.691406 4.898438 4.046875 4.890625 Z M 4.046875 4.890625 "/></g></g></g><g fill="#263b7e" fill-opacity="1"><g transform="translate(31.260043, 24.920364)"><g/></g></g><g fill="#263b7e" fill-opacity="1"><g transform="translate(41.185329, 24.920364)"><g><path d="M 4.671875 -10.921875 C 4.671875 -9.804688 4.46875 -8.546875 4.0625 -7.140625 C 4.101562 -6.617188 4.125 -6.109375 4.125 -5.609375 C 4.15625 -4.546875 4.285156 -3.816406 4.515625 -3.421875 C 4.679688 -3.203125 4.894531 -3.09375 5.15625 -3.09375 C 5.675781 -3.09375 6.316406 -3.457031 7.078125 -4.1875 C 6.492188 -5.5625 6.203125 -6.804688 6.203125 -7.921875 C 6.203125 -10.179688 7.269531 -11.3125 9.40625 -11.3125 C 10.132812 -11.3125 10.738281 -11.097656 11.21875 -10.671875 C 11.707031 -10.253906 11.953125 -9.734375 11.953125 -9.109375 C 11.953125 -7.785156 11.21875 -6.195312 9.75 -4.34375 C 10.363281 -3.613281 10.859375 -3.191406 11.234375 -3.078125 C 11.785156 -3.078125 12.609375 -4.085938 13.703125 -6.109375 C 13.503906 -6.847656 13.40625 -7.539062 13.40625 -8.1875 C 13.40625 -9.363281 13.582031 -10.222656 13.9375 -10.765625 C 14.382812 -11.460938 15.125 -11.8125 16.15625 -11.8125 C 17.195312 -11.8125 17.785156 -11.390625 17.921875 -10.546875 C 17.953125 -10.296875 17.96875 -10.03125 17.96875 -9.75 C 17.96875 -8.6875 17.378906 -7.222656 16.203125 -5.359375 C 16.617188 -4.765625 17.007812 -4.410156 17.375 -4.296875 C 18.132812 -4.296875 18.773438 -4.550781 19.296875 -5.0625 C 19.503906 -5.238281 19.675781 -5.40625 19.8125 -5.5625 C 19.957031 -5.726562 20.101562 -5.8125 20.25 -5.8125 C 20.476562 -5.8125 20.59375 -5.535156 20.59375 -4.984375 C 20.59375 -3.972656 20.296875 -3.226562 19.703125 -2.75 C 19.109375 -2.269531 18.328125 -2.03125 17.359375 -2.03125 C 16.398438 -2.03125 15.566406 -2.492188 14.859375 -3.421875 C 14.003906 -2.296875 13.296875 -1.507812 12.734375 -1.0625 C 11.703125 -0.21875 10.898438 0.203125 10.328125 0.203125 C 10.046875 0.203125 9.679688 -0.03125 9.234375 -0.5 C 8.796875 -0.976562 8.363281 -1.597656 7.9375 -2.359375 C 7.144531 -1.609375 6.359375 -0.992188 5.578125 -0.515625 C 4.804688 -0.0351562 4.15625 0.203125 3.625 0.203125 C 2.664062 0.203125 1.851562 -1.878906 1.1875 -6.046875 C 0.957031 -7.472656 0.84375 -8.453125 0.84375 -8.984375 C 0.875 -10.078125 1.023438 -10.835938 1.296875 -11.265625 C 1.660156 -11.796875 2.367188 -12.0625 3.421875 -12.0625 C 3.816406 -12.0625 4.125 -11.941406 4.34375 -11.703125 C 4.5625 -11.460938 4.671875 -11.203125 4.671875 -10.921875 Z M 8.90625 -6.453125 C 9.445312 -7.296875 9.71875 -7.96875 9.71875 -8.46875 C 9.71875 -8.976562 9.546875 -9.234375 9.203125 -9.234375 C 8.972656 -9.234375 8.828125 -9.101562 8.765625 -8.84375 C 8.710938 -8.59375 8.6875 -8.257812 8.6875 -7.84375 C 8.6875 -7.425781 8.757812 -6.960938 8.90625 -6.453125 Z M 8.90625 -6.453125 "/></g></g></g><g fill="#263b7e" fill-opacity="1"><g transform="translate(59.919296, 24.920364)"><g><path d="M 9 -8.34375 C 9 -8.9375 8.644531 -9.234375 7.9375 -9.234375 C 7.238281 -9.234375 6.550781 -8.691406 5.875 -7.609375 C 5.195312 -6.523438 4.773438 -5.421875 4.609375 -4.296875 C 4.648438 -3.910156 4.6875 -3.523438 4.71875 -3.140625 C 4.75 -2.765625 4.765625 -2.394531 4.765625 -2.03125 C 4.765625 -1.15625 4.472656 -0.5625 3.890625 -0.25 C 3.628906 -0.101562 3.378906 0.0351562 3.140625 0.171875 C 2.898438 0.304688 2.625 0.375 2.3125 0.375 C 2 0.375 1.71875 0.164062 1.46875 -0.25 C 1.226562 -0.675781 1.109375 -1.335938 1.109375 -2.234375 C 1.109375 -4.734375 1.289062 -6.898438 1.65625 -8.734375 C 2.21875 -11.578125 3.335938 -14.617188 5.015625 -17.859375 C 5.242188 -18.304688 5.582031 -18.523438 6.03125 -18.515625 C 6.476562 -18.515625 6.84375 -18.207031 7.125 -17.59375 C 7.40625 -16.976562 7.539062 -16.460938 7.53125 -16.046875 C 7.519531 -15.640625 7.453125 -15.238281 7.328125 -14.84375 C 7.203125 -14.457031 7.046875 -14.078125 6.859375 -13.703125 C 6.671875 -13.335938 6.457031 -12.957031 6.21875 -12.5625 C 5.976562 -12.175781 5.742188 -11.757812 5.515625 -11.3125 L 5.140625 -9.53125 C 5.785156 -10.601562 6.648438 -11.320312 7.734375 -11.6875 C 8.140625 -11.820312 8.582031 -11.890625 9.0625 -11.890625 C 10.1875 -11.890625 11.035156 -11.632812 11.609375 -11.125 C 12.191406 -10.625 12.484375 -9.914062 12.484375 -9 C 12.484375 -8.082031 12.363281 -7.148438 12.125 -6.203125 C 11.882812 -5.253906 11.707031 -4.578125 11.59375 -4.171875 C 11.488281 -3.773438 11.4375 -3.441406 11.4375 -3.171875 C 11.4375 -2.910156 11.53125 -2.78125 11.71875 -2.78125 C 11.957031 -2.78125 12.257812 -2.9375 12.625 -3.25 C 12.988281 -3.5625 13.351562 -3.90625 13.71875 -4.28125 C 14.082031 -4.65625 14.414062 -5 14.71875 -5.3125 C 15.03125 -5.625 15.242188 -5.78125 15.359375 -5.78125 C 15.585938 -5.78125 15.703125 -5.5 15.703125 -4.9375 C 15.703125 -3.78125 15.132812 -2.664062 14 -1.59375 C 12.070312 -0.46875 10.847656 0.09375 10.328125 0.09375 C 10.273438 0.09375 10.238281 0.0859375 10.21875 0.078125 C 8.894531 0.078125 8.234375 -0.976562 8.234375 -3.09375 C 8.234375 -4.007812 8.320312 -4.847656 8.5 -5.609375 C 8.675781 -6.367188 8.800781 -6.921875 8.875 -7.265625 C 8.957031 -7.617188 9 -7.976562 9 -8.34375 Z M 9 -8.34375 "/></g></g></g><g fill="#263b7e" fill-opacity="1"><g transform="translate(73.640991, 24.920364)"><g><path d="M 15.984375 -5.859375 C 16.273438 -5.859375 16.421875 -5.476562 16.421875 -4.71875 C 16.421875 -4.300781 16.25 -3.796875 15.90625 -3.203125 C 15.5625 -2.617188 15.109375 -2.082031 14.546875 -1.59375 C 13.992188 -1.113281 13.378906 -0.710938 12.703125 -0.390625 C 12.023438 -0.078125 11.363281 0.078125 10.71875 0.078125 C 9.84375 0.078125 9.253906 -0.691406 8.953125 -2.234375 C 8.523438 -1.523438 7.960938 -0.941406 7.265625 -0.484375 C 6.578125 -0.0234375 5.648438 0.203125 4.484375 0.203125 C 3.316406 0.203125 2.375 -0.160156 1.65625 -0.890625 C 0.945312 -1.617188 0.601562 -2.503906 0.625 -3.546875 C 0.625 -6.359375 1.554688 -8.578125 3.421875 -10.203125 C 4.210938 -10.878906 4.953125 -11.320312 5.640625 -11.53125 C 6.328125 -11.75 7.050781 -11.859375 7.8125 -11.859375 C 8.570312 -11.859375 9.191406 -11.726562 9.671875 -11.46875 C 9.910156 -11.945312 10.175781 -12.1875 10.46875 -12.1875 C 11.050781 -12.1875 11.601562 -11.929688 12.125 -11.421875 C 12.644531 -10.921875 12.90625 -10.445312 12.90625 -10 C 12.675781 -9.457031 12.335938 -8.804688 11.890625 -8.046875 C 11.753906 -7.273438 11.6875 -6.203125 11.6875 -4.828125 C 11.6875 -3.460938 11.859375 -2.78125 12.203125 -2.78125 C 12.640625 -2.78125 13.679688 -3.640625 15.328125 -5.359375 C 15.628906 -5.691406 15.847656 -5.859375 15.984375 -5.859375 Z M 4.265625 -4.359375 C 4.265625 -3.085938 4.738281 -2.453125 5.6875 -2.453125 C 6.695312 -2.472656 7.53125 -3.007812 8.1875 -4.0625 C 8.414062 -4.425781 8.609375 -4.875 8.765625 -5.40625 C 8.765625 -7.257812 8.925781 -8.847656 9.25 -10.171875 C 7.914062 -9.910156 6.75 -9.265625 5.75 -8.234375 C 4.757812 -7.210938 4.265625 -5.921875 4.265625 -4.359375 Z M 4.265625 -4.359375 "/></g></g></g><g fill="#263b7e" fill-opacity="1"><g transform="translate(88.082275, 24.920364)"><g><path d="M 1.84375 -1.34375 C 1.65625 -1.789062 1.519531 -2.304688 1.4375 -2.890625 C 1.351562 -3.472656 1.3125 -4.296875 1.3125 -5.359375 C 1.3125 -6.421875 1.507812 -7.851562 1.90625 -9.65625 L 0.796875 -9.65625 C 0.597656 -9.65625 0.5 -9.738281 0.5 -9.90625 C 0.5 -10.300781 0.535156 -10.625 0.609375 -10.875 C 0.679688 -11.132812 0.859375 -11.429688 1.140625 -11.765625 L 1.734375 -11.765625 C 1.960938 -11.765625 2.210938 -11.769531 2.484375 -11.78125 C 3.273438 -14.332031 4.082031 -15.609375 4.90625 -15.609375 C 5.570312 -15.585938 6.035156 -15.164062 6.296875 -14.34375 C 6.367188 -14.113281 6.445312 -13.863281 6.53125 -13.59375 L 5.515625 -11.8125 C 6.671875 -11.78125 7.398438 -11.765625 7.703125 -11.765625 C 8.003906 -11.765625 8.164062 -11.734375 8.1875 -11.671875 C 8.21875 -11.617188 8.234375 -11.53125 8.234375 -11.40625 C 8.234375 -11.113281 8.160156 -10.742188 8.015625 -10.296875 C 7.878906 -9.847656 7.722656 -9.632812 7.546875 -9.65625 L 5.0625 -9.78125 C 4.71875 -7.757812 4.546875 -6.085938 4.546875 -4.765625 C 4.546875 -3.441406 4.734375 -2.78125 5.109375 -2.78125 C 5.421875 -2.78125 5.988281 -3.039062 6.8125 -3.5625 C 7.644531 -4.082031 8.242188 -4.582031 8.609375 -5.0625 C 8.972656 -5.539062 9.269531 -5.78125 9.5 -5.78125 C 9.726562 -5.78125 9.84375 -5.5 9.84375 -4.9375 C 9.84375 -4.375 9.644531 -3.796875 9.25 -3.203125 C 8.851562 -2.617188 8.351562 -2.082031 7.75 -1.59375 C 7.144531 -1.113281 6.472656 -0.710938 5.734375 -0.390625 C 5.003906 -0.078125 4.363281 0.078125 3.8125 0.078125 C 3.269531 0.078125 2.851562 -0.046875 2.5625 -0.296875 C 2.28125 -0.554688 2.039062 -0.90625 1.84375 -1.34375 Z M 1.84375 -1.34375 "/></g></g></g><g fill="#263b7e" fill-opacity="1"><g transform="translate(95.948065, 24.920364)"><g><path d="M 6.390625 -12.015625 C 7.503906 -12.023438 8.332031 -11.816406 8.875 -11.390625 C 9.425781 -10.972656 9.703125 -10.367188 9.703125 -9.578125 C 9.703125 -8.796875 9.460938 -8.128906 8.984375 -7.578125 C 8.515625 -7.023438 7.941406 -6.632812 7.265625 -6.40625 C 7.742188 -5.90625 8.175781 -5.398438 8.5625 -4.890625 C 8.957031 -4.378906 9.15625 -3.84375 9.15625 -3.28125 C 9.15625 -2.164062 8.71875 -1.304688 7.84375 -0.703125 C 6.96875 -0.0976562 5.75 0.203125 4.1875 0.203125 C 2.625 0.203125 1.453125 -0.101562 0.671875 -0.71875 C -0.105469 -1.34375 -0.5 -2.046875 -0.5 -2.828125 C -0.5 -3.617188 -0.304688 -4.335938 0.078125 -4.984375 C 0.472656 -5.628906 0.894531 -5.953125 1.34375 -5.953125 C 1.601562 -5.953125 1.789062 -5.859375 1.90625 -5.671875 C 2.019531 -5.484375 2.238281 -4.929688 2.5625 -4.015625 C 2.675781 -3.679688 2.863281 -3.367188 3.125 -3.078125 C 3.738281 -2.398438 4.707031 -2.0625 6.03125 -2.0625 C 5.832031 -2.6875 5.515625 -3.222656 5.078125 -3.671875 C 4.640625 -4.128906 4.203125 -4.570312 3.765625 -5 C 3.335938 -5.4375 2.957031 -5.898438 2.625 -6.390625 C 2.300781 -6.878906 2.140625 -7.453125 2.140625 -8.109375 C 2.140625 -9.304688 2.582031 -10.273438 3.46875 -11.015625 C 4.3125 -11.679688 5.285156 -12.015625 6.390625 -12.015625 Z M 6.296875 -7.421875 C 6.960938 -8.128906 7.296875 -8.695312 7.296875 -9.125 C 7.296875 -9.320312 7.222656 -9.5 7.078125 -9.65625 C 6.941406 -9.820312 6.738281 -9.90625 6.46875 -9.90625 C 6.207031 -9.90625 5.957031 -9.867188 5.71875 -9.796875 C 5.476562 -9.734375 5.285156 -9.6875 5.140625 -9.65625 C 5.140625 -9.019531 5.523438 -8.273438 6.296875 -7.421875 Z M 6.296875 -7.421875 "/></g></g></g><g fill="#263b7e" fill-opacity="1"><g transform="translate(105.898163, 24.920364)"><g><path d="M 15.984375 -5.859375 C 16.273438 -5.859375 16.421875 -5.476562 16.421875 -4.71875 C 16.421875 -4.300781 16.25 -3.796875 15.90625 -3.203125 C 15.5625 -2.617188 15.109375 -2.082031 14.546875 -1.59375 C 13.992188 -1.113281 13.378906 -0.710938 12.703125 -0.390625 C 12.023438 -0.078125 11.363281 0.078125 10.71875 0.078125 C 9.84375 0.078125 9.253906 -0.691406 8.953125 -2.234375 C 8.523438 -1.523438 7.960938 -0.941406 7.265625 -0.484375 C 6.578125 -0.0234375 5.648438 0.203125 4.484375 0.203125 C 3.316406 0.203125 2.375 -0.160156 1.65625 -0.890625 C 0.945312 -1.617188 0.601562 -2.503906 0.625 -3.546875 C 0.625 -6.359375 1.554688 -8.578125 3.421875 -10.203125 C 4.210938 -10.878906 4.953125 -11.320312 5.640625 -11.53125 C 6.328125 -11.75 7.050781 -11.859375 7.8125 -11.859375 C 8.570312 -11.859375 9.191406 -11.726562 9.671875 -11.46875 C 9.910156 -11.945312 10.175781 -12.1875 10.46875 -12.1875 C 11.050781 -12.1875 11.601562 -11.929688 12.125 -11.421875 C 12.644531 -10.921875 12.90625 -10.445312 12.90625 -10 C 12.675781 -9.457031 12.335938 -8.804688 11.890625 -8.046875 C 11.753906 -7.273438 11.6875 -6.203125 11.6875 -4.828125 C 11.6875 -3.460938 11.859375 -2.78125 12.203125 -2.78125 C 12.640625 -2.78125 13.679688 -3.640625 15.328125 -5.359375 C 15.628906 -5.691406 15.847656 -5.859375 15.984375 -5.859375 Z M 4.265625 -4.359375 C 4.265625 -3.085938 4.738281 -2.453125 5.6875 -2.453125 C 6.695312 -2.472656 7.53125 -3.007812 8.1875 -4.0625 C 8.414062 -4.425781 8.609375 -4.875 8.765625 -5.40625 C 8.765625 -7.257812 8.925781 -8.847656 9.25 -10.171875 C 7.914062 -9.910156 6.75 -9.265625 5.75 -8.234375 C 4.757812 -7.210938 4.265625 -5.921875 4.265625 -4.359375 Z M 4.265625 -4.359375 "/></g></g></g><g fill="#263b7e" fill-opacity="1"><g transform="translate(120.339446, 24.920364)"><g><path d="M 6.28125 0.078125 C 3.914062 0.0859375 2.300781 -0.796875 1.4375 -2.578125 C 1.144531 -3.203125 1 -3.988281 1 -4.9375 C 1 -5.894531 1.078125 -6.910156 1.234375 -7.984375 C 1.566406 -10.140625 2.207031 -12.125 3.15625 -13.9375 C 3.632812 -14.863281 4.171875 -15.660156 4.765625 -16.328125 C 6.066406 -17.785156 7.519531 -18.503906 9.125 -18.484375 C 9.84375 -18.484375 10.398438 -18.285156 10.796875 -17.890625 C 11.203125 -17.503906 11.40625 -16.945312 11.40625 -16.21875 C 11.40625 -15.5 11.191406 -14.769531 10.765625 -14.03125 C 10.335938 -13.289062 9.785156 -12.523438 9.109375 -11.734375 C 8.441406 -10.953125 7.703125 -10.128906 6.890625 -9.265625 C 6.085938 -8.410156 5.296875 -7.476562 4.515625 -6.46875 L 4.515625 -5.484375 C 4.515625 -4.554688 4.710938 -3.875 5.109375 -3.4375 C 5.503906 -3.007812 5.96875 -2.796875 6.5 -2.796875 C 7.925781 -2.796875 9.179688 -3.5 10.265625 -4.90625 C 10.710938 -5.488281 11.054688 -5.78125 11.296875 -5.78125 C 11.523438 -5.78125 11.640625 -5.5 11.640625 -4.9375 C 11.640625 -4.375 11.484375 -3.796875 11.171875 -3.203125 C 10.867188 -2.617188 10.46875 -2.082031 9.96875 -1.59375 C 9.476562 -1.113281 8.910156 -0.710938 8.265625 -0.390625 C 7.617188 -0.078125 6.957031 0.078125 6.28125 0.078125 Z M 7.609375 -13.25 C 7.960938 -13.675781 8.238281 -14.0625 8.4375 -14.40625 C 8.632812 -14.757812 8.734375 -15.117188 8.734375 -15.484375 C 8.734375 -15.859375 8.601562 -16.046875 8.34375 -16.046875 C 7.757812 -16.046875 7.113281 -15.453125 6.40625 -14.265625 C 5.707031 -13.078125 5.1875 -11.515625 4.84375 -9.578125 C 5.40625 -10.441406 5.921875 -11.160156 6.390625 -11.734375 C 6.859375 -12.316406 7.265625 -12.820312 7.609375 -13.25 Z M 7.609375 -13.25 "/></g></g></g><g clip-path="url(#fd5d6103a7)"><g fill="#263b7e" fill-opacity="1"><g transform="translate(129.768458, 24.920364)"><g><path d="M 6.53125 -2.703125 C 7.820312 -2.703125 9.066406 -3.21875 10.265625 -4.25 C 10.710938 -4.625 11.078125 -4.972656 11.359375 -5.296875 C 11.640625 -5.617188 11.859375 -5.78125 12.015625 -5.78125 C 12.242188 -5.78125 12.359375 -5.546875 12.359375 -5.078125 C 12.359375 -4.617188 12.234375 -4.101562 11.984375 -3.53125 C 11.734375 -2.96875 11.320312 -2.410156 10.75 -1.859375 C 9.320312 -0.515625 7.367188 0.15625 4.890625 0.15625 C 2.921875 0.15625 1.582031 -0.554688 0.875 -1.984375 C 0.625 -2.484375 0.5 -3.195312 0.5 -4.125 C 0.5 -5.050781 0.679688 -6.015625 1.046875 -7.015625 C 1.410156 -8.015625 1.894531 -8.875 2.5 -9.59375 C 3.101562 -10.320312 3.800781 -10.890625 4.59375 -11.296875 C 5.382812 -11.703125 6.226562 -11.90625 7.125 -11.90625 C 8.03125 -11.90625 8.726562 -11.679688 9.21875 -11.234375 C 9.707031 -10.785156 9.953125 -10.207031 9.953125 -9.5 C 9.953125 -8.789062 9.773438 -8.207031 9.421875 -7.75 C 9.066406 -7.300781 8.609375 -6.921875 8.046875 -6.609375 C 7.484375 -6.304688 6.859375 -6.035156 6.171875 -5.796875 C 5.484375 -5.554688 4.804688 -5.285156 4.140625 -4.984375 L 4.140625 -4.359375 C 4.160156 -3.765625 4.410156 -3.34375 4.890625 -3.09375 C 5.367188 -2.851562 5.914062 -2.722656 6.53125 -2.703125 Z M 6.109375 -9.703125 C 5.242188 -9.703125 4.644531 -8.703125 4.3125 -6.703125 C 4.664062 -6.929688 4.992188 -7.132812 5.296875 -7.3125 C 5.597656 -7.5 5.867188 -7.675781 6.109375 -7.84375 C 6.597656 -8.207031 6.851562 -8.617188 6.875 -9.078125 C 6.875 -9.492188 6.617188 -9.703125 6.109375 -9.703125 Z M 6.109375 -9.703125 "/></g></g></g></g></g></g><g transform="matrix(1, 0, 0, 1, 539, 516)"><g clip-path="url(#e92d89bba7)"><g clip-path="url(#2338b13e25)"><g fill="#263b7e" fill-opacity="1"><g transform="translate(0.553378, 25.579902)"><g><path d="M 25.15625 -5.859375 C 25.4375 -5.859375 25.578125 -5.476562 25.578125 -4.71875 C 25.578125 -4.300781 25.40625 -3.796875 25.0625 -3.203125 C 24.71875 -2.617188 24.265625 -2.082031 23.703125 -1.59375 C 23.148438 -1.113281 22.535156 -0.710938 21.859375 -0.390625 C 21.179688 -0.078125 20.460938 0.078125 19.703125 0.078125 C 18.953125 0.078125 18.363281 -0.164062 17.9375 -0.65625 C 17.519531 -1.144531 17.3125 -1.691406 17.3125 -2.296875 C 17.3125 -2.898438 17.410156 -3.582031 17.609375 -4.34375 C 17.816406 -5.101562 18.035156 -5.894531 18.265625 -6.71875 C 18.890625 -8.925781 19.210938 -10.472656 19.234375 -11.359375 C 19.234375 -11.742188 19.179688 -12.039062 19.078125 -12.25 C 18.984375 -12.457031 18.796875 -12.5625 18.515625 -12.5625 C 18.015625 -12.5625 17.484375 -12.257812 16.921875 -11.65625 C 16.359375 -11.0625 15.828125 -10.300781 15.328125 -9.375 C 14.191406 -7.257812 13.585938 -5.191406 13.515625 -3.171875 C 13.554688 -2.941406 13.59375 -2.710938 13.625 -2.484375 C 13.65625 -2.253906 13.671875 -2.003906 13.671875 -1.734375 C 13.671875 -1.203125 13.410156 -0.71875 12.890625 -0.28125 C 12.367188 0.152344 11.785156 0.375 11.140625 0.375 C 10.753906 0.375 10.472656 0.183594 10.296875 -0.1875 C 10.117188 -0.5625 10.03125 -1.019531 10.03125 -1.5625 C 10.03125 -2.101562 10.148438 -2.84375 10.390625 -3.78125 C 10.640625 -4.726562 10.914062 -5.734375 11.21875 -6.796875 C 12.007812 -9.585938 12.414062 -11.671875 12.4375 -13.046875 C 12.4375 -13.742188 12.347656 -14.289062 12.171875 -14.6875 C 11.992188 -15.082031 11.660156 -15.28125 11.171875 -15.28125 C 10.273438 -15.28125 9.390625 -14.644531 8.515625 -13.375 C 7.640625 -12.101562 6.851562 -10.125 6.15625 -7.4375 C 5.96875 -6.75 5.828125 -6.144531 5.734375 -5.625 L 5.703125 -5.15625 C 6.015625 -3.632812 6.171875 -2.644531 6.171875 -2.1875 C 6.171875 -1.226562 5.832031 -0.582031 5.15625 -0.25 C 4.84375 -0.101562 4.539062 0.0351562 4.25 0.171875 C 3.96875 0.304688 3.660156 0.375 3.328125 0.375 C 2.492188 0.375 2.078125 -0.410156 2.078125 -1.984375 C 2.078125 -3.566406 2.519531 -6.660156 3.40625 -11.265625 C 3.71875 -12.921875 3.875 -13.847656 3.875 -14.046875 C 3.875 -15.378906 3.535156 -16.046875 2.859375 -16.046875 C 2.617188 -16.046875 2.40625 -15.976562 2.21875 -15.84375 C 2.03125 -15.71875 1.835938 -15.578125 1.640625 -15.421875 C 1.453125 -15.273438 1.257812 -15.132812 1.0625 -15 C 0.863281 -14.875 0.632812 -14.8125 0.375 -14.8125 C 0.125 -14.8125 0 -15.035156 0 -15.484375 C 0 -16.390625 0.421875 -17.132812 1.265625 -17.71875 C 2.078125 -18.3125 3.0625 -18.609375 4.21875 -18.609375 C 5.707031 -18.609375 6.582031 -17.914062 6.84375 -16.53125 C 6.914062 -16.113281 6.96875 -15.671875 7 -15.203125 C 8.21875 -17.503906 9.765625 -18.65625 11.640625 -18.65625 C 13.671875 -18.65625 14.835938 -17.679688 15.140625 -15.734375 C 15.234375 -15.171875 15.273438 -14.566406 15.265625 -13.921875 L 15.265625 -13.71875 C 16.335938 -15.207031 17.609375 -15.953125 19.078125 -15.953125 C 21.160156 -15.953125 22.203125 -14.695312 22.203125 -12.1875 C 22.203125 -11.09375 22.03125 -9.8125 21.6875 -8.34375 C 21.351562 -6.882812 21.109375 -5.835938 20.953125 -5.203125 C 20.796875 -4.566406 20.71875 -4.070312 20.71875 -3.71875 C 20.71875 -3.09375 20.9375 -2.78125 21.375 -2.78125 C 21.8125 -2.78125 22.859375 -3.640625 24.515625 -5.359375 C 24.816406 -5.691406 25.03125 -5.859375 25.15625 -5.859375 Z M 25.15625 -5.859375 "/></g></g></g></g><g fill="#263b7e" fill-opacity="1"><g transform="translate(25.143261, 25.579902)"><g><path d="M 18.8125 -5.859375 C 19.09375 -5.859375 19.234375 -5.476562 19.234375 -4.71875 C 19.234375 -4.300781 19.054688 -3.796875 18.703125 -3.203125 C 18.359375 -2.617188 17.910156 -2.082031 17.359375 -1.59375 C 16.804688 -1.113281 16.1875 -0.710938 15.5 -0.390625 C 14.820312 -0.078125 14.160156 0.078125 13.515625 0.078125 C 12.546875 0.078125 11.875 -0.164062 11.5 -0.65625 C 11.125 -1.144531 10.9375 -1.863281 10.9375 -2.8125 C 10.9375 -3.769531 11.3125 -5.40625 12.0625 -7.71875 C 9.78125 -7.8125 8.117188 -7.859375 7.078125 -7.859375 L 6.71875 -7.859375 C 6.425781 -6.023438 6.28125 -4.097656 6.28125 -2.078125 C 6.28125 -1.191406 5.941406 -0.582031 5.265625 -0.25 C 4.941406 -0.101562 4.632812 0.0351562 4.34375 0.171875 C 4.0625 0.304688 3.753906 0.375 3.421875 0.375 C 2.597656 0.375 2.1875 -0.367188 2.1875 -1.859375 C 2.1875 -3.347656 2.523438 -5.257812 3.203125 -7.59375 C 2.472656 -7.507812 1.832031 -7.425781 1.28125 -7.34375 C 0.726562 -7.257812 0.296875 -7.21875 -0.015625 -7.21875 C -0.335938 -7.21875 -0.5 -7.300781 -0.5 -7.46875 C -0.5 -7.96875 -0.0898438 -8.472656 0.71875 -8.984375 C 1.539062 -9.492188 2.65625 -9.878906 4.0625 -10.140625 C 5.625 -14.097656 7.53125 -16.738281 9.78125 -18.0625 C 10.601562 -18.5625 11.476562 -18.8125 12.40625 -18.8125 C 14.0625 -18.789062 15.253906 -18.34375 15.984375 -17.46875 C 16.722656 -16.59375 17.097656 -15.429688 17.109375 -13.984375 C 17.117188 -12.535156 16.675781 -10.65625 15.78125 -8.34375 C 15.445312 -7.445312 15.140625 -6.632812 14.859375 -5.90625 C 14.578125 -5.175781 14.4375 -4.585938 14.4375 -4.140625 C 14.4375 -3.691406 14.46875 -3.351562 14.53125 -3.125 C 14.601562 -2.894531 14.765625 -2.78125 15.015625 -2.78125 C 15.460938 -2.78125 16.507812 -3.640625 18.15625 -5.359375 C 18.457031 -5.691406 18.675781 -5.859375 18.8125 -5.859375 Z M 13.515625 -13.25 C 13.515625 -14.6875 12.976562 -15.40625 11.90625 -15.40625 C 10.8125 -15.40625 9.875 -14.945312 9.09375 -14.03125 C 8.3125 -13.113281 7.703125 -11.882812 7.265625 -10.34375 L 12.90625 -10.265625 C 13.3125 -11.585938 13.515625 -12.582031 13.515625 -13.25 Z M 13.515625 -13.25 "/></g></g></g><g fill="#263b7e" fill-opacity="1"><g transform="translate(42.38844, 25.579902)"><g><path d="M 5.3125 -0.578125 C 5.3125 -0.109375 4.976562 0.125 4.3125 0.125 C 3.269531 0.125 2.554688 -0.078125 2.171875 -0.484375 C 1.796875 -0.890625 1.609375 -1.570312 1.609375 -2.53125 C 1.628906 -4.019531 2.039062 -6.398438 2.84375 -9.671875 C 3.644531 -12.953125 4.398438 -15.382812 5.109375 -16.96875 C 5.296875 -17.382812 5.550781 -17.773438 5.875 -18.140625 C 6.207031 -18.515625 6.648438 -18.703125 7.203125 -18.703125 C 7.429688 -18.703125 7.625 -18.5625 7.78125 -18.28125 C 7.9375 -18 8.015625 -17.675781 8.015625 -17.3125 C 8.015625 -16.945312 7.945312 -16.40625 7.8125 -15.6875 C 7.6875 -14.96875 7.519531 -14.144531 7.3125 -13.21875 C 7.113281 -12.289062 6.894531 -11.289062 6.65625 -10.21875 C 5.757812 -6.132812 5.3125 -2.921875 5.3125 -0.578125 Z M 5.3125 -0.578125 "/></g></g></g><g fill="#263b7e" fill-opacity="1"><g transform="translate(50.527167, 25.579902)"><g><path d="M 4.1875 -5.234375 C 4.1875 -3.796875 4.800781 -3.078125 6.03125 -3.078125 C 7.375 -3.078125 8.273438 -3.539062 8.734375 -4.46875 C 8.898438 -4.800781 8.984375 -5.226562 8.984375 -5.75 C 8.984375 -6.269531 8.859375 -6.753906 8.609375 -7.203125 C 8.191406 -7.910156 7.476562 -8.691406 6.46875 -9.546875 C 4.800781 -10.972656 3.96875 -12.453125 3.96875 -13.984375 C 3.96875 -15.515625 4.445312 -16.691406 5.40625 -17.515625 C 6.363281 -18.347656 7.460938 -18.765625 8.703125 -18.765625 C 9.941406 -18.765625 10.925781 -18.445312 11.65625 -17.8125 C 12.382812 -17.1875 12.75 -16.242188 12.75 -14.984375 C 12.75 -14.160156 12.472656 -13.441406 11.921875 -12.828125 C 11.367188 -12.210938 10.632812 -11.832031 9.71875 -11.6875 C 10.132812 -11.34375 10.550781 -10.988281 10.96875 -10.625 C 11.363281 -10.257812 11.726562 -9.859375 12.0625 -9.421875 C 12.789062 -8.453125 13.15625 -7.289062 13.15625 -5.9375 C 13.15625 -4.988281 12.929688 -4.132812 12.484375 -3.375 C 12.046875 -2.613281 11.472656 -1.972656 10.765625 -1.453125 C 10.066406 -0.929688 9.28125 -0.53125 8.40625 -0.25 C 7.53125 0.0273438 6.710938 0.171875 5.953125 0.171875 C 4.328125 0.171875 3.070312 -0.195312 2.1875 -0.9375 C 1.144531 -1.78125 0.625 -3 0.625 -4.59375 C 0.625 -5.632812 0.960938 -6.640625 1.640625 -7.609375 C 2.316406 -8.585938 3.035156 -9.078125 3.796875 -9.078125 C 4.390625 -9.078125 4.6875 -8.894531 4.6875 -8.53125 C 4.6875 -8 4.601562 -7.472656 4.4375 -6.953125 C 4.269531 -6.429688 4.1875 -5.859375 4.1875 -5.234375 Z M 9 -12.28125 C 9.945312 -13.226562 10.421875 -14.210938 10.421875 -15.234375 C 10.421875 -15.546875 10.253906 -15.8125 9.921875 -16.03125 C 9.554688 -16.226562 9.175781 -16.328125 8.78125 -16.328125 C 7.882812 -16.328125 7.238281 -16.035156 6.84375 -15.453125 C 7.039062 -14.742188 7.332031 -14.140625 7.71875 -13.640625 C 8.113281 -13.148438 8.539062 -12.695312 9 -12.28125 Z M 9 -12.28125 "/></g></g></g><g fill="#263b7e" fill-opacity="1"><g transform="translate(64.670691, 25.579902)"><g/></g></g><g fill="#263b7e" fill-opacity="1"><g transform="translate(74.595977, 25.579902)"><g><path d="M 0.375 -4.296875 C 0.375 -4.492188 0.503906 -4.59375 0.765625 -4.59375 C 1.035156 -4.59375 1.851562 -4.410156 3.21875 -4.046875 C 3.539062 -6.753906 4.425781 -9.695312 5.875 -12.875 C 6.394531 -14.03125 7.007812 -14.609375 7.71875 -14.609375 C 7.851562 -14.609375 7.976562 -14.46875 8.09375 -14.1875 C 8.21875 -13.90625 8.28125 -13.5625 8.28125 -13.15625 C 8.28125 -12.65625 8.019531 -11.285156 7.5 -9.046875 C 6.976562 -6.816406 6.632812 -4.875 6.46875 -3.21875 C 7.5625 -2.976562 8.523438 -2.859375 9.359375 -2.859375 C 10.203125 -2.859375 10.96875 -3.078125 11.65625 -3.515625 C 12.351562 -3.953125 12.953125 -4.515625 13.453125 -5.203125 C 14.472656 -6.679688 14.984375 -8.453125 14.984375 -10.515625 C 14.972656 -14.335938 13.453125 -16.25 10.421875 -16.25 C 9.347656 -16.238281 7.445312 -15.757812 4.71875 -14.8125 C 4.1875 -14.632812 3.722656 -14.546875 3.328125 -14.546875 C 2.929688 -14.546875 2.734375 -14.660156 2.734375 -14.890625 C 2.734375 -15.203125 2.960938 -15.570312 3.421875 -16 C 3.890625 -16.4375 4.484375 -16.851562 5.203125 -17.25 C 6.992188 -18.207031 8.734375 -18.6875 10.421875 -18.6875 C 12.734375 -18.6875 14.632812 -18.066406 16.125 -16.828125 C 17.882812 -15.347656 18.753906 -13.113281 18.734375 -10.125 C 18.734375 -8.851562 18.535156 -7.59375 18.140625 -6.34375 C 17.742188 -5.101562 17.140625 -4 16.328125 -3.03125 C 15.515625 -2.070312 14.488281 -1.289062 13.25 -0.6875 C 12.007812 -0.09375 10.546875 0.203125 8.859375 0.203125 C 8.179688 0.203125 7.320312 0.0507812 6.28125 -0.25 C 6.164062 0.0585938 5.875 0.21875 5.40625 0.21875 C 4.550781 0.21875 3.96875 0.0742188 3.65625 -0.203125 C 3.351562 -0.492188 3.175781 -0.972656 3.125 -1.640625 C 2.332031 -2.085938 1.675781 -2.550781 1.15625 -3.03125 C 0.632812 -3.507812 0.375 -3.929688 0.375 -4.296875 Z M 0.375 -4.296875 "/></g></g></g><g fill="#263b7e" fill-opacity="1"><g transform="translate(93.702137, 25.579902)"><g><path d="M 17.296875 -16.125 C 17.296875 -15.945312 17.046875 -15.859375 16.546875 -15.859375 C 16.367188 -15.859375 16.128906 -15.878906 15.828125 -15.921875 C 15.535156 -15.972656 14.984375 -16.046875 14.171875 -16.140625 C 13.359375 -16.242188 12.492188 -16.296875 11.578125 -16.296875 C 10.660156 -16.296875 9.828125 -16.050781 9.078125 -15.5625 C 8.335938 -15.082031 7.710938 -14.460938 7.203125 -13.703125 C 6.703125 -12.941406 6.3125 -12.085938 6.03125 -11.140625 C 5.757812 -10.191406 5.625 -9.265625 5.625 -8.359375 C 5.625 -6.703125 6.003906 -5.410156 6.765625 -4.484375 C 7.535156 -3.554688 8.597656 -3.09375 9.953125 -3.09375 C 12.398438 -3.09375 14.273438 -3.960938 15.578125 -5.703125 C 15.972656 -6.234375 16.296875 -6.820312 16.546875 -7.46875 C 15.335938 -7.613281 14.410156 -8.0625 13.765625 -8.8125 C 13.117188 -9.570312 12.796875 -10.5 12.796875 -11.59375 C 12.796875 -12.695312 13.101562 -13.570312 13.71875 -14.21875 C 14.332031 -14.863281 15.15625 -15.1875 16.1875 -15.1875 C 17.21875 -15.1875 18.007812 -14.789062 18.5625 -14 C 19.125 -13.21875 19.40625 -12.234375 19.40625 -11.046875 C 19.40625 -10.628906 19.390625 -10.238281 19.359375 -9.875 C 19.648438 -10.007812 19.894531 -10.148438 20.09375 -10.296875 C 20.289062 -10.441406 20.488281 -10.515625 20.6875 -10.515625 C 21.019531 -10.515625 21.1875 -10.375 21.1875 -10.09375 C 21.1875 -9.519531 20.992188 -9.019531 20.609375 -8.59375 C 20.222656 -8.175781 19.707031 -7.859375 19.0625 -7.640625 C 18.5625 -5.222656 17.503906 -3.3125 15.890625 -1.90625 C 14.273438 -0.5 12.1875 0.203125 9.625 0.203125 C 7.0625 0.203125 5.0625 -0.578125 3.625 -2.140625 C 2.363281 -3.503906 1.734375 -5.265625 1.734375 -7.421875 C 1.734375 -8.878906 1.96875 -10.285156 2.4375 -11.640625 C 2.914062 -12.992188 3.585938 -14.191406 4.453125 -15.234375 C 5.316406 -16.273438 6.367188 -17.109375 7.609375 -17.734375 C 8.859375 -18.367188 10.253906 -18.6875 11.796875 -18.6875 C 13.347656 -18.6875 14.648438 -18.410156 15.703125 -17.859375 C 16.765625 -17.316406 17.296875 -16.738281 17.296875 -16.125 Z M 16.5 -13 C 16.15625 -13 15.984375 -12.71875 15.984375 -12.15625 C 15.984375 -11.164062 16.378906 -10.445312 17.171875 -10 C 17.222656 -10.445312 17.25 -10.910156 17.25 -11.390625 C 17.25 -12.460938 17 -13 16.5 -13 Z M 16.5 -13 "/></g></g></g><g fill="#263b7e" fill-opacity="1"><g transform="translate(114.768549, 25.579902)"><g/></g></g><g fill="#263b7e" fill-opacity="1"><g transform="translate(124.693835, 25.579902)"><g><path d="M 9.546875 0.890625 C 8.335938 1.222656 6.960938 1.390625 5.421875 1.390625 C 3.890625 1.390625 2.644531 1.0625 1.6875 0.40625 C 0.726562 -0.246094 0.25 -1.175781 0.25 -2.375 C 0.25 -3.15625 0.613281 -3.820312 1.34375 -4.375 C 2.070312 -4.925781 3.128906 -5.203125 4.515625 -5.203125 C 6.304688 -5.203125 7.78125 -4.664062 8.9375 -3.59375 C 9.257812 -3.28125 9.570312 -2.953125 9.875 -2.609375 C 11.425781 -3.378906 12.625 -4.476562 13.46875 -5.90625 C 14.3125 -7.34375 14.734375 -8.929688 14.734375 -10.671875 C 14.734375 -12.421875 14.328125 -13.707031 13.515625 -14.53125 C 12.710938 -15.363281 11.710938 -15.78125 10.515625 -15.78125 C 8.828125 -15.78125 7.453125 -15.234375 6.390625 -14.140625 C 5.335938 -13.046875 4.8125 -11.582031 4.8125 -9.75 C 4.8125 -9.050781 4.890625 -8.46875 5.046875 -8 C 5.203125 -7.53125 5.28125 -7.175781 5.28125 -6.9375 C 5.28125 -6.707031 5.191406 -6.59375 5.015625 -6.59375 C 4.296875 -6.59375 3.65625 -6.960938 3.09375 -7.703125 C 2.539062 -8.441406 2.265625 -9.457031 2.265625 -10.75 C 2.265625 -12.050781 2.503906 -13.191406 2.984375 -14.171875 C 3.472656 -15.160156 4.113281 -15.988281 4.90625 -16.65625 C 6.507812 -17.976562 8.429688 -18.640625 10.671875 -18.640625 C 12.921875 -18.640625 14.789062 -18.007812 16.28125 -16.75 C 17.9375 -15.363281 18.769531 -13.460938 18.78125 -11.046875 C 18.78125 -8.273438 18.109375 -5.898438 16.765625 -3.921875 C 15.628906 -2.234375 14.050781 -0.925781 12.03125 0 C 12.738281 0.707031 13.519531 1.0625 14.375 1.0625 C 15.226562 1.0625 15.921875 1.03125 16.453125 0.96875 C 16.992188 0.914062 17.429688 0.890625 17.765625 0.890625 C 18.109375 0.890625 18.28125 0.960938 18.28125 1.109375 C 18.28125 1.492188 17.910156 1.921875 17.171875 2.390625 C 16.441406 2.859375 15.375 3.09375 13.96875 3.09375 C 12.25 3.09375 10.773438 2.359375 9.546875 0.890625 Z M 7.546875 -1.8125 C 6.765625 -2.59375 5.953125 -2.984375 5.109375 -2.984375 C 4.597656 -2.984375 4.15625 -2.921875 3.78125 -2.796875 C 3.40625 -2.679688 3.21875 -2.507812 3.21875 -2.28125 C 3.21875 -1.78125 3.960938 -1.53125 5.453125 -1.53125 C 5.984375 -1.53125 6.679688 -1.625 7.546875 -1.8125 Z M 7.546875 -1.8125 "/></g></g></g><g fill="#263b7e" fill-opacity="1"><g transform="translate(144.345892, 25.579902)"><g><path d="M 14.515625 -5.03125 C 14.515625 -3.53125 14.722656 -2.78125 15.140625 -2.78125 C 15.378906 -2.78125 15.679688 -2.9375 16.046875 -3.25 C 16.410156 -3.5625 16.773438 -3.90625 17.140625 -4.28125 C 17.503906 -4.65625 17.835938 -5 18.140625 -5.3125 C 18.453125 -5.625 18.664062 -5.78125 18.78125 -5.78125 C 19.007812 -5.78125 19.125 -5.5 19.125 -4.9375 C 19.125 -3.78125 18.539062 -2.65625 17.375 -1.5625 C 16.207031 -0.46875 14.960938 0.078125 13.640625 0.078125 C 12.816406 0.0859375 12.253906 -0.269531 11.953125 -1 C 11.722656 -1.570312 11.609375 -2.492188 11.609375 -3.765625 C 10.503906 -1.203125 8.859375 0.078125 6.671875 0.078125 C 5.203125 0.078125 4.03125 -0.289062 3.15625 -1.03125 C 2.289062 -1.769531 1.859375 -2.929688 1.859375 -4.515625 C 1.859375 -4.898438 2.066406 -5.90625 2.484375 -7.53125 C 2.910156 -9.15625 3.25 -10.492188 3.5 -11.546875 C 3.75 -12.597656 3.875 -13.429688 3.875 -14.046875 C 3.875 -15.378906 3.535156 -16.046875 2.859375 -16.046875 C 2.617188 -16.046875 2.40625 -15.976562 2.21875 -15.84375 C 2.03125 -15.71875 1.835938 -15.578125 1.640625 -15.421875 C 1.453125 -15.273438 1.257812 -15.132812 1.0625 -15 C 0.863281 -14.875 0.632812 -14.8125 0.375 -14.8125 C 0.125 -14.8125 0 -15.035156 0 -15.484375 C 0 -16.390625 0.421875 -17.132812 1.265625 -17.71875 C 2.078125 -18.3125 3.046875 -18.609375 4.171875 -18.609375 C 5.296875 -18.609375 6.140625 -18.144531 6.703125 -17.21875 C 7.128906 -16.539062 7.34375 -15.773438 7.34375 -14.921875 C 7.34375 -14.066406 7.25 -13.238281 7.0625 -12.4375 C 6.882812 -11.632812 6.691406 -10.8125 6.484375 -9.96875 C 6.273438 -9.125 6.078125 -8.269531 5.890625 -7.40625 C 5.710938 -6.539062 5.625 -5.828125 5.625 -5.265625 C 5.625 -4.710938 5.648438 -4.347656 5.703125 -4.171875 C 5.929688 -3.441406 6.492188 -3.078125 7.390625 -3.078125 C 8.546875 -3.078125 9.554688 -3.804688 10.421875 -5.265625 C 11.148438 -6.484375 11.660156 -7.96875 11.953125 -9.71875 L 12.109375 -10.84375 L 12.015625 -16.03125 C 12.015625 -16.789062 12.34375 -17.414062 13 -17.90625 C 13.664062 -18.40625 14.363281 -18.648438 15.09375 -18.640625 C 15.382812 -18.640625 15.570312 -18.414062 15.65625 -17.96875 C 15.738281 -17.53125 15.78125 -17.046875 15.78125 -16.515625 C 15.78125 -15.992188 15.742188 -15.488281 15.671875 -15 C 15.609375 -14.507812 15.53125 -13.945312 15.4375 -13.3125 C 15.351562 -12.675781 15.253906 -11.992188 15.140625 -11.265625 C 14.703125 -8.273438 14.492188 -6.195312 14.515625 -5.03125 Z M 14.515625 -5.03125 "/></g></g></g><g fill="#263b7e" fill-opacity="1"><g transform="translate(161.988077, 25.579902)"><g><path d="M 8.140625 -11.0625 C 9.578125 -11.0625 10.296875 -10.695312 10.296875 -9.96875 C 10.296875 -9.125 9.46875 -8.703125 7.8125 -8.703125 C 7.445312 -8.703125 7.050781 -8.769531 6.625 -8.90625 C 6.144531 -8.570312 5.773438 -8.15625 5.515625 -7.65625 C 5.265625 -7.164062 5.140625 -6.453125 5.140625 -5.515625 C 5.140625 -4.585938 5.503906 -3.898438 6.234375 -3.453125 C 6.972656 -3.003906 7.84375 -2.78125 8.84375 -2.78125 C 9.84375 -2.78125 10.648438 -2.941406 11.265625 -3.265625 C 11.890625 -3.585938 12.429688 -3.9375 12.890625 -4.3125 C 13.359375 -4.695312 13.738281 -5.050781 14.03125 -5.375 C 14.320312 -5.695312 14.535156 -5.859375 14.671875 -5.859375 C 14.796875 -5.859375 14.898438 -5.769531 14.984375 -5.59375 C 15.066406 -5.414062 15.109375 -5.1875 15.109375 -4.90625 C 15.109375 -3.582031 14.375 -2.421875 12.90625 -1.421875 C 11.445312 -0.421875 9.703125 0.078125 7.671875 0.078125 C 4.492188 0.078125 2.429688 -0.84375 1.484375 -2.6875 C 1.160156 -3.320312 1 -4.097656 1 -5.015625 C 1 -7.378906 2.179688 -9.03125 4.546875 -9.96875 C 3.335938 -10.8125 2.734375 -12.085938 2.734375 -13.796875 C 2.734375 -14.609375 2.957031 -15.359375 3.40625 -16.046875 C 2.988281 -16.515625 2.648438 -17.003906 2.390625 -17.515625 C 2.140625 -18.023438 2.015625 -18.414062 2.015625 -18.6875 C 2.015625 -19.144531 2.175781 -19.375 2.5 -19.375 C 2.738281 -19.375 3.023438 -19.195312 3.359375 -18.84375 C 3.703125 -18.488281 3.976562 -18.203125 4.1875 -17.984375 C 4.40625 -17.773438 4.628906 -17.601562 4.859375 -17.46875 C 6.265625 -18.332031 7.914062 -18.765625 9.8125 -18.765625 C 11.71875 -18.765625 12.988281 -18.234375 13.625 -17.171875 C 13.851562 -16.773438 13.96875 -16.285156 13.96875 -15.703125 C 13.96875 -14.828125 13.585938 -14.09375 12.828125 -13.5 C 12.066406 -12.90625 11.066406 -12.609375 9.828125 -12.609375 C 8.585938 -12.609375 7.429688 -13.003906 6.359375 -13.796875 C 6.335938 -13.734375 6.328125 -13.664062 6.328125 -13.59375 L 6.328125 -13.046875 C 6.328125 -12.753906 6.421875 -12.40625 6.609375 -12 C 6.796875 -11.59375 7.03125 -11.253906 7.3125 -10.984375 C 7.5625 -11.035156 7.835938 -11.0625 8.140625 -11.0625 Z M 11.21875 -15.328125 C 11.21875 -15.972656 10.6875 -16.296875 9.625 -16.296875 C 8.570312 -16.296875 7.722656 -15.972656 7.078125 -15.328125 C 7.960938 -14.785156 8.875 -14.515625 9.8125 -14.515625 C 10.75 -14.515625 11.21875 -14.785156 11.21875 -15.328125 Z M 11.21875 -15.328125 "/></g></g></g><g fill="#263b7e" fill-opacity="1"><g transform="translate(175.114265, 25.579902)"><g/></g></g><g fill="#263b7e" fill-opacity="1"><g transform="translate(185.039551, 25.579902)"><g><path d="M 14.515625 -5.03125 C 14.515625 -3.53125 14.722656 -2.78125 15.140625 -2.78125 C 15.378906 -2.78125 15.679688 -2.9375 16.046875 -3.25 C 16.410156 -3.5625 16.773438 -3.90625 17.140625 -4.28125 C 17.503906 -4.65625 17.835938 -5 18.140625 -5.3125 C 18.453125 -5.625 18.664062 -5.78125 18.78125 -5.78125 C 19.007812 -5.78125 19.125 -5.5 19.125 -4.9375 C 19.125 -3.78125 18.539062 -2.65625 17.375 -1.5625 C 16.207031 -0.46875 14.960938 0.078125 13.640625 0.078125 C 12.816406 0.0859375 12.253906 -0.269531 11.953125 -1 C 11.722656 -1.570312 11.609375 -2.492188 11.609375 -3.765625 C 10.503906 -1.203125 8.859375 0.078125 6.671875 0.078125 C 5.203125 0.078125 4.03125 -0.289062 3.15625 -1.03125 C 2.289062 -1.769531 1.859375 -2.929688 1.859375 -4.515625 C 1.859375 -4.898438 2.066406 -5.90625 2.484375 -7.53125 C 2.910156 -9.15625 3.25 -10.492188 3.5 -11.546875 C 3.75 -12.597656 3.875 -13.429688 3.875 -14.046875 C 3.875 -15.378906 3.535156 -16.046875 2.859375 -16.046875 C 2.617188 -16.046875 2.40625 -15.976562 2.21875 -15.84375 C 2.03125 -15.71875 1.835938 -15.578125 1.640625 -15.421875 C 1.453125 -15.273438 1.257812 -15.132812 1.0625 -15 C 0.863281 -14.875 0.632812 -14.8125 0.375 -14.8125 C 0.125 -14.8125 0 -15.035156 0 -15.484375 C 0 -16.390625 0.421875 -17.132812 1.265625 -17.71875 C 2.078125 -18.3125 3.046875 -18.609375 4.171875 -18.609375 C 5.296875 -18.609375 6.140625 -18.144531 6.703125 -17.21875 C 7.128906 -16.539062 7.34375 -15.773438 7.34375 -14.921875 C 7.34375 -14.066406 7.25 -13.238281 7.0625 -12.4375 C 6.882812 -11.632812 6.691406 -10.8125 6.484375 -9.96875 C 6.273438 -9.125 6.078125 -8.269531 5.890625 -7.40625 C 5.710938 -6.539062 5.625 -5.828125 5.625 -5.265625 C 5.625 -4.710938 5.648438 -4.347656 5.703125 -4.171875 C 5.929688 -3.441406 6.492188 -3.078125 7.390625 -3.078125 C 8.546875 -3.078125 9.554688 -3.804688 10.421875 -5.265625 C 11.148438 -6.484375 11.660156 -7.96875 11.953125 -9.71875 L 12.109375 -10.84375 L 12.015625 -16.03125 C 12.015625 -16.789062 12.34375 -17.414062 13 -17.90625 C 13.664062 -18.40625 14.363281 -18.648438 15.09375 -18.640625 C 15.382812 -18.640625 15.570312 -18.414062 15.65625 -17.96875 C 15.738281 -17.53125 15.78125 -17.046875 15.78125 -16.515625 C 15.78125 -15.992188 15.742188 -15.488281 15.671875 -15 C 15.609375 -14.507812 15.53125 -13.945312 15.4375 -13.3125 C 15.351562 -12.675781 15.253906 -11.992188 15.140625 -11.265625 C 14.703125 -8.273438 14.492188 -6.195312 14.515625 -5.03125 Z M 14.515625 -5.03125 "/></g></g></g><g fill="#263b7e" fill-opacity="1"><g transform="translate(204.170523, 25.579902)"><g><path d="M 25.15625 -5.859375 C 25.4375 -5.859375 25.578125 -5.476562 25.578125 -4.71875 C 25.578125 -4.300781 25.40625 -3.796875 25.0625 -3.203125 C 24.71875 -2.617188 24.265625 -2.082031 23.703125 -1.59375 C 23.148438 -1.113281 22.535156 -0.710938 21.859375 -0.390625 C 21.179688 -0.078125 20.460938 0.078125 19.703125 0.078125 C 18.953125 0.078125 18.363281 -0.164062 17.9375 -0.65625 C 17.519531 -1.144531 17.3125 -1.691406 17.3125 -2.296875 C 17.3125 -2.898438 17.410156 -3.582031 17.609375 -4.34375 C 17.816406 -5.101562 18.035156 -5.894531 18.265625 -6.71875 C 18.890625 -8.925781 19.210938 -10.472656 19.234375 -11.359375 C 19.234375 -11.742188 19.179688 -12.039062 19.078125 -12.25 C 18.984375 -12.457031 18.796875 -12.5625 18.515625 -12.5625 C 18.015625 -12.5625 17.484375 -12.257812 16.921875 -11.65625 C 16.359375 -11.0625 15.828125 -10.300781 15.328125 -9.375 C 14.191406 -7.257812 13.585938 -5.191406 13.515625 -3.171875 C 13.554688 -2.941406 13.59375 -2.710938 13.625 -2.484375 C 13.65625 -2.253906 13.671875 -2.003906 13.671875 -1.734375 C 13.671875 -1.203125 13.410156 -0.71875 12.890625 -0.28125 C 12.367188 0.152344 11.785156 0.375 11.140625 0.375 C 10.753906 0.375 10.472656 0.183594 10.296875 -0.1875 C 10.117188 -0.5625 10.03125 -1.019531 10.03125 -1.5625 C 10.03125 -2.101562 10.148438 -2.84375 10.390625 -3.78125 C 10.640625 -4.726562 10.914062 -5.734375 11.21875 -6.796875 C 12.007812 -9.585938 12.414062 -11.671875 12.4375 -13.046875 C 12.4375 -13.742188 12.347656 -14.289062 12.171875 -14.6875 C 11.992188 -15.082031 11.660156 -15.28125 11.171875 -15.28125 C 10.273438 -15.28125 9.390625 -14.644531 8.515625 -13.375 C 7.640625 -12.101562 6.851562 -10.125 6.15625 -7.4375 C 5.96875 -6.75 5.828125 -6.144531 5.734375 -5.625 L 5.703125 -5.15625 C 6.015625 -3.632812 6.171875 -2.644531 6.171875 -2.1875 C 6.171875 -1.226562 5.832031 -0.582031 5.15625 -0.25 C 4.84375 -0.101562 4.539062 0.0351562 4.25 0.171875 C 3.96875 0.304688 3.660156 0.375 3.328125 0.375 C 2.492188 0.375 2.078125 -0.410156 2.078125 -1.984375 C 2.078125 -3.566406 2.519531 -6.660156 3.40625 -11.265625 C 3.71875 -12.921875 3.875 -13.847656 3.875 -14.046875 C 3.875 -15.378906 3.535156 -16.046875 2.859375 -16.046875 C 2.617188 -16.046875 2.40625 -15.976562 2.21875 -15.84375 C 2.03125 -15.71875 1.835938 -15.578125 1.640625 -15.421875 C 1.453125 -15.273438 1.257812 -15.132812 1.0625 -15 C 0.863281 -14.875 0.632812 -14.8125 0.375 -14.8125 C 0.125 -14.8125 0 -15.035156 0 -15.484375 C 0 -16.390625 0.421875 -17.132812 1.265625 -17.71875 C 2.078125 -18.3125 3.0625 -18.609375 4.21875 -18.609375 C 5.707031 -18.609375 6.582031 -17.914062 6.84375 -16.53125 C 6.914062 -16.113281 6.96875 -15.671875 7 -15.203125 C 8.21875 -17.503906 9.765625 -18.65625 11.640625 -18.65625 C 13.671875 -18.65625 14.835938 -17.679688 15.140625 -15.734375 C 15.234375 -15.171875 15.273438 -14.566406 15.265625 -13.921875 L 15.265625 -13.71875 C 16.335938 -15.207031 17.609375 -15.953125 19.078125 -15.953125 C 21.160156 -15.953125 22.203125 -14.695312 22.203125 -12.1875 C 22.203125 -11.09375 22.03125 -9.8125 21.6875 -8.34375 C 21.351562 -6.882812 21.109375 -5.835938 20.953125 -5.203125 C 20.796875 -4.566406 20.71875 -4.070312 20.71875 -3.71875 C 20.71875 -3.09375 20.9375 -2.78125 21.375 -2.78125 C 21.8125 -2.78125 22.859375 -3.640625 24.515625 -5.359375 C 24.816406 -5.691406 25.03125 -5.859375 25.15625 -5.859375 Z M 25.15625 -5.859375 "/></g></g></g><g fill="#263b7e" fill-opacity="1"><g transform="translate(228.760407, 25.579902)"><g><path d="M 18.8125 -5.859375 C 19.09375 -5.859375 19.234375 -5.476562 19.234375 -4.71875 C 19.234375 -4.300781 19.054688 -3.796875 18.703125 -3.203125 C 18.359375 -2.617188 17.910156 -2.082031 17.359375 -1.59375 C 16.804688 -1.113281 16.1875 -0.710938 15.5 -0.390625 C 14.820312 -0.078125 14.160156 0.078125 13.515625 0.078125 C 12.546875 0.078125 11.875 -0.164062 11.5 -0.65625 C 11.125 -1.144531 10.9375 -1.863281 10.9375 -2.8125 C 10.9375 -3.769531 11.3125 -5.40625 12.0625 -7.71875 C 9.78125 -7.8125 8.117188 -7.859375 7.078125 -7.859375 L 6.71875 -7.859375 C 6.425781 -6.023438 6.28125 -4.097656 6.28125 -2.078125 C 6.28125 -1.191406 5.941406 -0.582031 5.265625 -0.25 C 4.941406 -0.101562 4.632812 0.0351562 4.34375 0.171875 C 4.0625 0.304688 3.753906 0.375 3.421875 0.375 C 2.597656 0.375 2.1875 -0.367188 2.1875 -1.859375 C 2.1875 -3.347656 2.523438 -5.257812 3.203125 -7.59375 C 2.472656 -7.507812 1.832031 -7.425781 1.28125 -7.34375 C 0.726562 -7.257812 0.296875 -7.21875 -0.015625 -7.21875 C -0.335938 -7.21875 -0.5 -7.300781 -0.5 -7.46875 C -0.5 -7.96875 -0.0898438 -8.472656 0.71875 -8.984375 C 1.539062 -9.492188 2.65625 -9.878906 4.0625 -10.140625 C 5.625 -14.097656 7.53125 -16.738281 9.78125 -18.0625 C 10.601562 -18.5625 11.476562 -18.8125 12.40625 -18.8125 C 14.0625 -18.789062 15.253906 -18.34375 15.984375 -17.46875 C 16.722656 -16.59375 17.097656 -15.429688 17.109375 -13.984375 C 17.117188 -12.535156 16.675781 -10.65625 15.78125 -8.34375 C 15.445312 -7.445312 15.140625 -6.632812 14.859375 -5.90625 C 14.578125 -5.175781 14.4375 -4.585938 14.4375 -4.140625 C 14.4375 -3.691406 14.46875 -3.351562 14.53125 -3.125 C 14.601562 -2.894531 14.765625 -2.78125 15.015625 -2.78125 C 15.460938 -2.78125 16.507812 -3.640625 18.15625 -5.359375 C 18.457031 -5.691406 18.675781 -5.859375 18.8125 -5.859375 Z M 13.515625 -13.25 C 13.515625 -14.6875 12.976562 -15.40625 11.90625 -15.40625 C 10.8125 -15.40625 9.875 -14.945312 9.09375 -14.03125 C 8.3125 -13.113281 7.703125 -11.882812 7.265625 -10.34375 L 12.90625 -10.265625 C 13.3125 -11.585938 13.515625 -12.582031 13.515625 -13.25 Z M 13.515625 -13.25 "/></g></g></g><g fill="#263b7e" fill-opacity="1"><g transform="translate(246.005586, 25.579902)"><g/></g></g><g fill="#263b7e" fill-opacity="1"><g transform="translate(255.930884, 25.579902)"><g><path d="M 18.8125 -5.859375 C 19.09375 -5.859375 19.234375 -5.476562 19.234375 -4.71875 C 19.234375 -4.300781 19.054688 -3.796875 18.703125 -3.203125 C 18.359375 -2.617188 17.910156 -2.082031 17.359375 -1.59375 C 16.804688 -1.113281 16.1875 -0.710938 15.5 -0.390625 C 14.820312 -0.078125 14.160156 0.078125 13.515625 0.078125 C 12.546875 0.078125 11.875 -0.164062 11.5 -0.65625 C 11.125 -1.144531 10.9375 -1.863281 10.9375 -2.8125 C 10.9375 -3.769531 11.3125 -5.40625 12.0625 -7.71875 C 9.78125 -7.8125 8.117188 -7.859375 7.078125 -7.859375 L 6.71875 -7.859375 C 6.425781 -6.023438 6.28125 -4.097656 6.28125 -2.078125 C 6.28125 -1.191406 5.941406 -0.582031 5.265625 -0.25 C 4.941406 -0.101562 4.632812 0.0351562 4.34375 0.171875 C 4.0625 0.304688 3.753906 0.375 3.421875 0.375 C 2.597656 0.375 2.1875 -0.367188 2.1875 -1.859375 C 2.1875 -3.347656 2.523438 -5.257812 3.203125 -7.59375 C 2.472656 -7.507812 1.832031 -7.425781 1.28125 -7.34375 C 0.726562 -7.257812 0.296875 -7.21875 -0.015625 -7.21875 C -0.335938 -7.21875 -0.5 -7.300781 -0.5 -7.46875 C -0.5 -7.96875 -0.0898438 -8.472656 0.71875 -8.984375 C 1.539062 -9.492188 2.65625 -9.878906 4.0625 -10.140625 C 5.625 -14.097656 7.53125 -16.738281 9.78125 -18.0625 C 10.601562 -18.5625 11.476562 -18.8125 12.40625 -18.8125 C 14.0625 -18.789062 15.253906 -18.34375 15.984375 -17.46875 C 16.722656 -16.59375 17.097656 -15.429688 17.109375 -13.984375 C 17.117188 -12.535156 16.675781 -10.65625 15.78125 -8.34375 C 15.445312 -7.445312 15.140625 -6.632812 14.859375 -5.90625 C 14.578125 -5.175781 14.4375 -4.585938 14.4375 -4.140625 C 14.4375 -3.691406 14.46875 -3.351562 14.53125 -3.125 C 14.601562 -2.894531 14.765625 -2.78125 15.015625 -2.78125 C 15.460938 -2.78125 16.507812 -3.640625 18.15625 -5.359375 C 18.457031 -5.691406 18.675781 -5.859375 18.8125 -5.859375 Z M 13.515625 -13.25 C 13.515625 -14.6875 12.976562 -15.40625 11.90625 -15.40625 C 10.8125 -15.40625 9.875 -14.945312 9.09375 -14.03125 C 8.3125 -13.113281 7.703125 -11.882812 7.265625 -10.34375 L 12.90625 -10.265625 C 13.3125 -11.585938 13.515625 -12.582031 13.515625 -13.25 Z M 13.515625 -13.25 "/></g></g></g><g fill="#263b7e" fill-opacity="1"><g transform="translate(274.168565, 25.579902)"><g><path d="M 6.375 -11.6875 C 5.71875 -10.0625 5.390625 -8.550781 5.390625 -7.15625 C 5.390625 -5.757812 5.671875 -4.726562 6.234375 -4.0625 C 6.804688 -3.40625 7.726562 -3.078125 9 -3.078125 C 9.757812 -3.078125 10.429688 -3.347656 11.015625 -3.890625 C 11.203125 -5.253906 11.351562 -6.15625 11.46875 -6.59375 C 11.75 -7.6875 12.175781 -8.234375 12.75 -8.234375 C 13.21875 -8.234375 13.65625 -7.914062 14.0625 -7.28125 C 14.476562 -6.644531 14.679688 -6.101562 14.671875 -5.65625 C 14.671875 -4.914062 14.367188 -3.535156 13.765625 -1.515625 C 14.921875 -2.390625 16.253906 -3.6875 17.765625 -5.40625 C 17.984375 -5.65625 18.164062 -5.78125 18.3125 -5.78125 C 18.539062 -5.78125 18.65625 -5.507812 18.65625 -4.96875 C 18.65625 -3.90625 18.125 -2.773438 17.0625 -1.578125 C 16.007812 -0.378906 14.609375 0.578125 12.859375 1.296875 C 12.722656 1.609375 12.613281 1.90625 12.53125 2.1875 C 12.445312 2.46875 12.335938 2.804688 12.203125 3.203125 C 12.078125 3.597656 11.847656 4.03125 11.515625 4.5 C 11.179688 4.96875 10.765625 5.367188 10.265625 5.703125 C 9.210938 6.429688 8.003906 6.796875 6.640625 6.796875 C 5.273438 6.796875 4.132812 6.492188 3.21875 5.890625 C 2.300781 5.285156 1.84375 4.457031 1.84375 3.40625 C 1.84375 2.882812 2.085938 2.457031 2.578125 2.125 C 3.078125 1.800781 3.722656 1.519531 4.515625 1.28125 C 5.304688 1.039062 6.195312 0.828125 7.1875 0.640625 C 8.1875 0.460938 9.179688 0.257812 10.171875 0.03125 C 10.304688 -0.351562 10.40625 -0.710938 10.46875 -1.046875 C 9.820312 -0.546875 9.03125 -0.296875 8.09375 -0.296875 C 6.125 -0.296875 4.578125 -0.703125 3.453125 -1.515625 C 2.140625 -2.453125 1.484375 -3.925781 1.484375 -5.9375 C 1.484375 -8.539062 2.144531 -11.019531 3.46875 -13.375 C 3.070312 -13.832031 2.75 -14.3125 2.5 -14.8125 C 2.257812 -15.320312 2.140625 -15.710938 2.140625 -15.984375 C 2.140625 -16.441406 2.300781 -16.664062 2.625 -16.65625 C 2.84375 -16.65625 3.09375 -16.519531 3.375 -16.25 C 3.65625 -15.988281 3.878906 -15.765625 4.046875 -15.578125 C 4.222656 -15.398438 4.410156 -15.238281 4.609375 -15.09375 C 5.472656 -16.175781 6.484375 -17.054688 7.640625 -17.734375 C 8.796875 -18.421875 10.066406 -18.765625 11.453125 -18.765625 C 12.847656 -18.765625 13.929688 -18.503906 14.703125 -17.984375 C 15.484375 -17.472656 15.875 -16.582031 15.875 -15.3125 C 15.875 -14.039062 15.378906 -12.984375 14.390625 -12.140625 C 13.410156 -11.296875 12.046875 -10.875 10.296875 -10.875 C 9.085938 -10.875 7.78125 -11.144531 6.375 -11.6875 Z M 7.203125 -13.375 C 8.109375 -12.976562 9.207031 -12.78125 10.5 -12.78125 C 11.289062 -12.78125 11.925781 -12.992188 12.40625 -13.421875 C 12.882812 -13.847656 13.125 -14.3125 13.125 -14.8125 C 13.125 -15.320312 12.960938 -15.695312 12.640625 -15.9375 C 12.316406 -16.175781 11.890625 -16.296875 11.359375 -16.296875 C 9.773438 -16.296875 8.390625 -15.320312 7.203125 -13.375 Z M 6.359375 4.890625 C 7.484375 4.890625 8.460938 4.046875 9.296875 2.359375 C 8.390625 2.585938 7.617188 2.765625 6.984375 2.890625 C 6.359375 3.023438 5.851562 3.144531 5.46875 3.25 C 5.082031 3.351562 4.800781 3.453125 4.625 3.546875 C 4.445312 3.648438 4.359375 3.789062 4.359375 3.96875 C 4.359375 4.28125 4.566406 4.503906 4.984375 4.640625 C 5.410156 4.785156 5.867188 4.867188 6.359375 4.890625 Z M 6.359375 4.890625 "/></g></g></g><g fill="#263b7e" fill-opacity="1"><g transform="translate(290.843047, 25.579902)"><g><path d="M 8.140625 -11.0625 C 9.578125 -11.0625 10.296875 -10.695312 10.296875 -9.96875 C 10.296875 -9.125 9.46875 -8.703125 7.8125 -8.703125 C 7.445312 -8.703125 7.050781 -8.769531 6.625 -8.90625 C 6.144531 -8.570312 5.773438 -8.15625 5.515625 -7.65625 C 5.265625 -7.164062 5.140625 -6.453125 5.140625 -5.515625 C 5.140625 -4.585938 5.503906 -3.898438 6.234375 -3.453125 C 6.972656 -3.003906 7.84375 -2.78125 8.84375 -2.78125 C 9.84375 -2.78125 10.648438 -2.941406 11.265625 -3.265625 C 11.890625 -3.585938 12.429688 -3.9375 12.890625 -4.3125 C 13.359375 -4.695312 13.738281 -5.050781 14.03125 -5.375 C 14.320312 -5.695312 14.535156 -5.859375 14.671875 -5.859375 C 14.796875 -5.859375 14.898438 -5.769531 14.984375 -5.59375 C 15.066406 -5.414062 15.109375 -5.1875 15.109375 -4.90625 C 15.109375 -3.582031 14.375 -2.421875 12.90625 -1.421875 C 11.445312 -0.421875 9.703125 0.078125 7.671875 0.078125 C 4.492188 0.078125 2.429688 -0.84375 1.484375 -2.6875 C 1.160156 -3.320312 1 -4.097656 1 -5.015625 C 1 -7.378906 2.179688 -9.03125 4.546875 -9.96875 C 3.335938 -10.8125 2.734375 -12.085938 2.734375 -13.796875 C 2.734375 -14.609375 2.957031 -15.359375 3.40625 -16.046875 C 2.988281 -16.515625 2.648438 -17.003906 2.390625 -17.515625 C 2.140625 -18.023438 2.015625 -18.414062 2.015625 -18.6875 C 2.015625 -19.144531 2.175781 -19.375 2.5 -19.375 C 2.738281 -19.375 3.023438 -19.195312 3.359375 -18.84375 C 3.703125 -18.488281 3.976562 -18.203125 4.1875 -17.984375 C 4.40625 -17.773438 4.628906 -17.601562 4.859375 -17.46875 C 6.265625 -18.332031 7.914062 -18.765625 9.8125 -18.765625 C 11.71875 -18.765625 12.988281 -18.234375 13.625 -17.171875 C 13.851562 -16.773438 13.96875 -16.285156 13.96875 -15.703125 C 13.96875 -14.828125 13.585938 -14.09375 12.828125 -13.5 C 12.066406 -12.90625 11.066406 -12.609375 9.828125 -12.609375 C 8.585938 -12.609375 7.429688 -13.003906 6.359375 -13.796875 C 6.335938 -13.734375 6.328125 -13.664062 6.328125 -13.59375 L 6.328125 -13.046875 C 6.328125 -12.753906 6.421875 -12.40625 6.609375 -12 C 6.796875 -11.59375 7.03125 -11.253906 7.3125 -10.984375 C 7.5625 -11.035156 7.835938 -11.0625 8.140625 -11.0625 Z M 11.21875 -15.328125 C 11.21875 -15.972656 10.6875 -16.296875 9.625 -16.296875 C 8.570312 -16.296875 7.722656 -15.972656 7.078125 -15.328125 C 7.960938 -14.785156 8.875 -14.515625 9.8125 -14.515625 C 10.75 -14.515625 11.21875 -14.785156 11.21875 -15.328125 Z M 11.21875 -15.328125 "/></g></g></g><g fill="#263b7e" fill-opacity="1"><g transform="translate(306.450535, 25.579902)"><g><path d="M 14.34375 -4.0625 C 14.34375 -3.207031 14.53125 -2.78125 14.90625 -2.78125 C 15.320312 -2.78125 16.046875 -3.289062 17.078125 -4.3125 C 17.335938 -4.582031 17.613281 -4.90625 17.90625 -5.28125 C 18.207031 -5.664062 18.441406 -5.859375 18.609375 -5.859375 C 18.941406 -5.859375 19.109375 -5.5625 19.109375 -4.96875 C 19.117188 -4.382812 18.953125 -3.796875 18.609375 -3.203125 C 18.265625 -2.617188 17.8125 -2.082031 17.25 -1.59375 C 16.695312 -1.113281 16.082031 -0.710938 15.40625 -0.390625 C 14.726562 -0.078125 14.066406 0.078125 13.421875 0.078125 C 12.441406 0.078125 11.765625 -0.164062 11.390625 -0.65625 C 11.023438 -1.144531 10.84375 -1.710938 10.84375 -2.359375 C 10.84375 -3.003906 10.898438 -3.640625 11.015625 -4.265625 C 11.210938 -5.253906 11.789062 -7.175781 12.75 -10.03125 C 13.195312 -11.382812 13.421875 -12.398438 13.421875 -13.078125 C 13.421875 -13.753906 13.289062 -14.289062 13.03125 -14.6875 C 12.78125 -15.082031 12.394531 -15.28125 11.875 -15.28125 C 11.351562 -15.28125 10.84375 -15.101562 10.34375 -14.75 C 9.851562 -14.394531 9.390625 -13.925781 8.953125 -13.34375 C 8.179688 -12.332031 7.492188 -11.015625 6.890625 -9.390625 C 6.285156 -7.765625 5.890625 -6.351562 5.703125 -5.15625 C 6.015625 -3.632812 6.171875 -2.644531 6.171875 -2.1875 C 6.171875 -1.226562 5.832031 -0.582031 5.15625 -0.25 C 4.84375 -0.101562 4.539062 0.0351562 4.25 0.171875 C 3.96875 0.304688 3.660156 0.375 3.328125 0.375 C 2.492188 0.375 2.078125 -0.410156 2.078125 -1.984375 C 2.078125 -3.566406 2.519531 -6.660156 3.40625 -11.265625 C 3.71875 -12.921875 3.875 -13.847656 3.875 -14.046875 C 3.875 -15.378906 3.535156 -16.046875 2.859375 -16.046875 C 2.617188 -16.046875 2.40625 -15.976562 2.21875 -15.84375 C 2.03125 -15.71875 1.835938 -15.578125 1.640625 -15.421875 C 1.453125 -15.273438 1.257812 -15.132812 1.0625 -15 C 0.863281 -14.875 0.632812 -14.8125 0.375 -14.8125 C 0.125 -14.8125 0 -15.035156 0 -15.484375 C 0 -16.390625 0.421875 -17.132812 1.265625 -17.71875 C 2.078125 -18.3125 3.0625 -18.609375 4.21875 -18.609375 C 5.84375 -18.609375 6.753906 -17.816406 6.953125 -16.234375 C 7.015625 -15.765625 7.035156 -15.257812 7.015625 -14.71875 L 7.015625 -14.546875 C 7.648438 -15.742188 8.410156 -16.726562 9.296875 -17.5 C 10.179688 -18.269531 11.207031 -18.65625 12.375 -18.65625 C 14 -18.65625 15.175781 -18.226562 15.90625 -17.375 C 17.425781 -15.53125 17.351562 -12.5 15.6875 -8.28125 C 15.351562 -7.425781 15.046875 -6.632812 14.765625 -5.90625 C 14.484375 -5.175781 14.34375 -4.5625 14.34375 -4.0625 Z M 14.34375 -4.0625 "/></g></g></g><g fill="#263b7e" fill-opacity="1"><g transform="translate(325.085244, 25.579902)"><g><path d="M 0.375 -4.296875 C 0.375 -4.492188 0.503906 -4.59375 0.765625 -4.59375 C 1.035156 -4.59375 1.851562 -4.410156 3.21875 -4.046875 C 3.539062 -6.753906 4.425781 -9.695312 5.875 -12.875 C 6.394531 -14.03125 7.007812 -14.609375 7.71875 -14.609375 C 7.851562 -14.609375 7.976562 -14.46875 8.09375 -14.1875 C 8.21875 -13.90625 8.28125 -13.5625 8.28125 -13.15625 C 8.28125 -12.65625 8.019531 -11.285156 7.5 -9.046875 C 6.976562 -6.816406 6.632812 -4.875 6.46875 -3.21875 C 7.5625 -2.976562 8.523438 -2.859375 9.359375 -2.859375 C 10.203125 -2.859375 10.96875 -3.078125 11.65625 -3.515625 C 12.351562 -3.953125 12.953125 -4.515625 13.453125 -5.203125 C 14.472656 -6.679688 14.984375 -8.453125 14.984375 -10.515625 C 14.972656 -14.335938 13.453125 -16.25 10.421875 -16.25 C 9.347656 -16.238281 7.445312 -15.757812 4.71875 -14.8125 C 4.1875 -14.632812 3.722656 -14.546875 3.328125 -14.546875 C 2.929688 -14.546875 2.734375 -14.660156 2.734375 -14.890625 C 2.734375 -15.203125 2.960938 -15.570312 3.421875 -16 C 3.890625 -16.4375 4.484375 -16.851562 5.203125 -17.25 C 6.992188 -18.207031 8.734375 -18.6875 10.421875 -18.6875 C 12.734375 -18.6875 14.632812 -18.066406 16.125 -16.828125 C 17.882812 -15.347656 18.753906 -13.113281 18.734375 -10.125 C 18.734375 -8.851562 18.535156 -7.59375 18.140625 -6.34375 C 17.742188 -5.101562 17.140625 -4 16.328125 -3.03125 C 15.515625 -2.070312 14.488281 -1.289062 13.25 -0.6875 C 12.007812 -0.09375 10.546875 0.203125 8.859375 0.203125 C 8.179688 0.203125 7.320312 0.0507812 6.28125 -0.25 C 6.164062 0.0585938 5.875 0.21875 5.40625 0.21875 C 4.550781 0.21875 3.96875 0.0742188 3.65625 -0.203125 C 3.351562 -0.492188 3.175781 -0.972656 3.125 -1.640625 C 2.332031 -2.085938 1.675781 -2.550781 1.15625 -3.03125 C 0.632812 -3.507812 0.375 -3.929688 0.375 -4.296875 Z M 0.375 -4.296875 "/></g></g></g><g fill="#263b7e" fill-opacity="1"><g transform="translate(344.191429, 25.579902)"><g><path d="M 18.8125 -5.859375 C 19.09375 -5.859375 19.234375 -5.476562 19.234375 -4.71875 C 19.234375 -4.300781 19.054688 -3.796875 18.703125 -3.203125 C 18.359375 -2.617188 17.910156 -2.082031 17.359375 -1.59375 C 16.804688 -1.113281 16.1875 -0.710938 15.5 -0.390625 C 14.820312 -0.078125 14.160156 0.078125 13.515625 0.078125 C 12.546875 0.078125 11.875 -0.164062 11.5 -0.65625 C 11.125 -1.144531 10.9375 -1.863281 10.9375 -2.8125 C 10.9375 -3.769531 11.3125 -5.40625 12.0625 -7.71875 C 9.78125 -7.8125 8.117188 -7.859375 7.078125 -7.859375 L 6.71875 -7.859375 C 6.425781 -6.023438 6.28125 -4.097656 6.28125 -2.078125 C 6.28125 -1.191406 5.941406 -0.582031 5.265625 -0.25 C 4.941406 -0.101562 4.632812 0.0351562 4.34375 0.171875 C 4.0625 0.304688 3.753906 0.375 3.421875 0.375 C 2.597656 0.375 2.1875 -0.367188 2.1875 -1.859375 C 2.1875 -3.347656 2.523438 -5.257812 3.203125 -7.59375 C 2.472656 -7.507812 1.832031 -7.425781 1.28125 -7.34375 C 0.726562 -7.257812 0.296875 -7.21875 -0.015625 -7.21875 C -0.335938 -7.21875 -0.5 -7.300781 -0.5 -7.46875 C -0.5 -7.96875 -0.0898438 -8.472656 0.71875 -8.984375 C 1.539062 -9.492188 2.65625 -9.878906 4.0625 -10.140625 C 5.625 -14.097656 7.53125 -16.738281 9.78125 -18.0625 C 10.601562 -18.5625 11.476562 -18.8125 12.40625 -18.8125 C 14.0625 -18.789062 15.253906 -18.34375 15.984375 -17.46875 C 16.722656 -16.59375 17.097656 -15.429688 17.109375 -13.984375 C 17.117188 -12.535156 16.675781 -10.65625 15.78125 -8.34375 C 15.445312 -7.445312 15.140625 -6.632812 14.859375 -5.90625 C 14.578125 -5.175781 14.4375 -4.585938 14.4375 -4.140625 C 14.4375 -3.691406 14.46875 -3.351562 14.53125 -3.125 C 14.601562 -2.894531 14.765625 -2.78125 15.015625 -2.78125 C 15.460938 -2.78125 16.507812 -3.640625 18.15625 -5.359375 C 18.457031 -5.691406 18.675781 -5.859375 18.8125 -5.859375 Z M 13.515625 -13.25 C 13.515625 -14.6875 12.976562 -15.40625 11.90625 -15.40625 C 10.8125 -15.40625 9.875 -14.945312 9.09375 -14.03125 C 8.3125 -13.113281 7.703125 -11.882812 7.265625 -10.34375 L 12.90625 -10.265625 C 13.3125 -11.585938 13.515625 -12.582031 13.515625 -13.25 Z M 13.515625 -13.25 "/></g></g></g></g></g></svg>